<svg width="1200" height="630" fill="none" xmlns="http://www.w3.org/2000/svg" xmlns:xlink="http://www.w3.org/1999/xlink"><g clip-path="url(#prefix__clip0_2419_3968)"><path fill="#fff" d="M0 0h1200v630H0z"/><g opacity=".5"><mask id="prefix__a" style="mask-type:alpha" maskUnits="userSpaceOnUse" x="0" y="0" width="1200" height="630"><path fill="#D9D9D9" d="M0 0h1200v630H0z"/></mask><g mask="url(#prefix__a)"><path opacity=".35" d="M1009.06-118.038C915.829 311.688 681.195 16.229 415.179 295.69 273.041 445.008 67.609 446.197-1.015 441.886v369.133H75.49c101.572-32.74 259.156-104.463 409.861-258.259 250.272-255.398 460.242-132.186 595.999-327.084 70.71-101.546 101.71-237.114 115.18-343.714h-187.47z" fill="url(#prefix__paint0_linear_2419_3968)"/><g opacity=".4" fill="#A6A6A6"><path d="M-139.831 736.943c-4.022 0-7.751-.116-11.169-.329l.055-.965c40.123 2.529 123.075-9.114 224.836-50.204 79.149-31.957 194.748-92.376 295.943-198.673 109.347-114.871 197.855-165.191 268.98-205.605 76.189-43.311 131.228-74.592 170.017-160.905C849.173 30.494 870.085-116.122 878.804-370l.914.039c-8.719 254.013-29.668 400.744-70.065 490.648-38.917 86.602-94.084 117.961-170.418 161.349-71.07 40.395-159.524 90.676-268.762 205.45-101.304 106.433-217.03 166.91-296.253 198.905-93.225 37.634-170.748 50.59-214.051 50.59v-.038z"/><path d="M-137.528 750.286l-.055-.966c21.734-1.332 102.017-10.291 223.027-69.127 73.866-35.934 183.415-101.335 285.761-208.868 113.606-119.351 206.246-167.682 280.697-206.513 150.074-78.28 225.385-117.574 246.991-623.941l.914.039c-21.625 506.946-97.118 546.317-247.502 624.771-74.379 38.812-166.964 87.085-280.461 206.339C269.407 579.65 159.749 645.108 85.809 681.062c-121.155 58.913-201.584 67.872-223.355 69.224h.018z"/><path d="M-124.056 763.976l-.146-.946c60.504-9.751 141.116-41.843 221.18-88.07 97.447-56.248 192.737-131.998 275.598-219.044 117.591-123.541 214.416-169.574 292.213-206.552 73.666-35.027 131.868-62.697 173.618-142.058C882.259 23.929 907.1-116.546 919-348.219l.914.058c-6.178 120.432-15.775 215.221-29.356 289.793-12.832 70.499-29.631 124.854-51.347 166.138-41.896 79.65-100.207 107.359-174.038 142.463-77.724 36.958-174.458 82.934-291.939 206.359-82.915 87.104-178.279 162.912-275.8 219.199-80.154 46.265-160.894 78.415-221.49 88.166v.019z"/><path d="M-110.603 777.647l-.201-.946c62.625-15.177 138.466-52.174 219.353-106.993 87.101-59.048 178.881-138.293 265.434-229.22C495.321 313.008 596.351 269.581 677.53 234.67c74.104-31.86 132.635-57.02 175.866-132.983 45.826-80.539 72.276-215.936 85.712-439.016l.913.058c-13.453 223.235-39.94 358.767-85.839 439.441-43.377 76.233-102.036 101.451-176.305 133.369-81.105 34.873-182.026 78.261-303.236 205.605C288.052 532.11 196.216 611.433 109.06 670.5c-80.959 54.877-156.91 91.931-219.644 107.128l-.019.019z"/><path d="M-97.15 791.318l-.255-.927c64.288-19.927 135.432-61.114 217.506-125.916C194.26 605.93 277.742 527.611 375.354 425.06c124.848-131.188 230.137-171.737 314.734-204.331 74.671-28.771 133.658-51.498 178.37-124.1 47.8-77.605 75.786-208.078 90.738-423.028l.914.077c-14.97 215.124-43.011 345.732-90.885 423.49-44.875 72.855-103.973 95.64-178.826 124.468-84.506 32.556-189.685 73.086-314.405 204.119-97.63 102.571-181.167 180.928-255.345 239.493-82.165 64.879-153.4 106.124-217.798 126.07z"/><path d="M-83.696 804.989l-.292-.908c61.126-22.437 124.172-63.546 198.422-129.333 67.853-60.129 138.576-134.702 220.468-221.053a47733.46 47733.46 0 0141.823-44.064C504.9 274.988 614.484 237.528 702.536 207.425c75.366-25.759 134.902-46.111 181.094-115.373 49.738-74.573 79.241-200.276 95.655-407.542l.914.077c-16.451 207.459-45.99 333.298-95.82 408.025-46.356 69.532-106.02 89.923-181.551 115.74-87.96 30.064-197.435 67.486-325.445 201.975a23154.1 23154.1 0 00-41.823 44.044c-81.91 86.37-152.651 160.962-220.522 221.111-74.324 65.864-137.48 107.012-198.715 129.507h-.019z"/><path d="M-70.26 818.679l-.33-.888c113.187-47.096 201.64-147.446 313.62-274.482 42.024-47.674 85.492-96.971 135.084-149.086 131.282-137.927 245.218-172.046 336.779-199.485 76.17-22.804 136.327-40.839 183.982-106.818C923.899 53.279 943.86 7.09 959.873-53.25c17.292-65.189 30.216-147.408 39.501-251.349l.916.096c-9.287 104-22.229 186.277-39.54 251.523-16.049 60.457-36.047 106.742-61.144 141.498-47.856 66.231-111.157 85.193-184.457 107.147-91.452 27.4-205.277 61.481-336.395 199.233-49.574 52.078-93.024 101.374-135.048 149.049C131.635 671.079 43.126 771.487-70.242 818.66l-.018.019z"/><path d="M-56.825 832.35l-.365-.888c107.665-49.374 183.36-145.399 271.009-256.601 47.362-60.091 101.049-128.194 165.648-196.066 134.225-141.016 252.584-171.602 347.691-196.183 73.995-19.135 137.9-35.645 187.053-98.38 25.865-33.02 46.576-77.276 63.356-135.3 18.188-62.91 31.883-142.271 41.893-242.602l.92.096c-10.02 100.408-23.747 179.828-41.935 242.795-16.799 58.14-37.583 102.513-63.521 135.628-49.336 62.987-113.369 79.535-187.528 98.709-47.599 12.3-101.56 26.261-159.561 54.511-66.628 32.478-128.028 78.723-187.692 141.421-64.581 67.833-118.249 135.937-165.593 196.008C126.828 686.777 51.078 782.899-56.807 832.369l-.018-.019z"/><path d="M-43.39 846.021l-.383-.869c107.391-53.235 173.032-147.735 249.056-257.161 48.385-69.668 103.242-148.623 175.591-224.625 60.999-64.087 124.099-110.507 192.939-141.923 59.938-27.361 116.074-39.642 165.611-50.474 74.927-16.394 139.618-30.547 190.233-90.059 26.688-31.377 48.166-73.761 65.678-129.526 19.045-60.651 33.525-137.251 44.255-234.145l.91.116c-10.73 96.971-25.22 173.629-44.288 234.338-17.548 55.9-39.099 98.38-65.86 129.874-50.799 59.762-115.654 73.954-190.727 90.367-49.482 10.813-105.563 23.094-165.428 50.417-68.731 31.358-131.74 77.72-192.646 141.711-72.295 75.962-127.115 154.879-175.5 224.509C129.954 698.112 64.258 792.708-43.353 846.04l-.036-.019z"/><path d="M-29.954 859.711l-.402-.869C79.302 800.895 137.905 704.445 205.758 592.78c49.062-80.752 99.787-164.245 176.487-244.822 62.187-65.324 126.896-111.782 197.819-142.001 61.821-26.338 120.114-36.842 171.552-46.11 75.914-13.691 141.464-25.508 193.524-81.872 27.492-29.755 49.738-70.285 67.98-123.869 19.91-58.449 35.12-132.345 46.54-225.957l.91.116c-11.42 93.669-26.67 167.643-46.59 226.17-18.298 53.737-40.599 94.364-68.182 124.216-52.279 56.576-117.975 68.432-194.036 82.142-51.383 9.268-109.639 19.772-171.35 46.072-70.814 30.161-135.414 76.542-197.509 141.788-76.608 80.5-127.315 163.955-176.359 244.668-33.451 55.07-65.056 107.069-102.072 152.659-41.476 51.073-84.176 87.22-134.39 113.751l-.036-.02z"/><path d="M-16.519 873.382l-.42-.849c113.405-63.219 168.938-168.319 227.724-279.579 46.046-87.124 93.645-177.24 172.831-260.444 63.302-66.52 129.583-112.92 202.609-141.846 63.685-25.237 124.171-33.907 177.547-41.553 76.938-11.026 143.383-20.526 196.923-73.762 28.315-28.153 51.295-66.848 70.245-118.308 20.73-56.267 36.71-127.576 48.81-218.001l.91.135c-12.12 90.502-28.09 161.889-48.86 218.214-19.01 51.614-42.077 90.425-70.483 118.675-53.741 53.428-120.333 62.967-197.435 74.012-53.321 7.627-113.771 16.297-177.347 41.496-72.898 28.886-139.069 75.229-202.279 141.633-79.113 83.108-126.676 173.147-172.685 260.212-58.86 111.395-114.447 216.592-228.09 279.946v.019z"/><path d="M-3.084 887.053l-.438-.849C114.562 817.289 164.94 707.033 218.26 590.289c42.335-92.665 86.114-188.497 166.726-273.207 64.38-67.64 132.196-113.925 207.306-141.518 65.568-24.078 128.285-30.817 183.616-36.764 78.017-8.381 145.413-15.622 200.397-65.749C1036.35 18.31 1075.6-84.357 1099.82-250.07l.9.155c-24.26 165.943-63.62 268.804-123.829 323.7-55.204 50.32-122.728 57.58-200.89 65.98-55.295 5.947-117.957 12.667-183.415 36.707-74.982 27.535-142.689 73.761-206.959 141.286-80.521 84.594-124.245 180.349-166.562 272.937C165.671 707.574 115.239 817.984-3.102 887.034l.018.019z"/><path d="M10.352 900.744l-.457-.831c123.422-74.9 168.992-191.123 217.232-314.162 38.277-97.608 77.851-198.557 159.231-284.058 65.404-68.703 134.737-114.833 211.949-140.997 67.433-22.862 132.434-27.593 189.758-31.783 79.15-5.773 147.496-10.755 203.924-57.812 61.801-51.536 102.461-150.11 127.921-310.223l.89.155c-25.5 160.344-66.26 259.111-128.262 310.821-56.648 47.25-125.141 52.232-204.436 58.025-57.288 4.17-122.216 8.921-189.539 31.725-77.084 26.125-146.29 72.159-211.583 140.764-81.252 85.367-120.79 186.219-159.031 283.75-48.312 123.193-93.937 239.57-217.634 314.626h.037z"/><path d="M23.769 914.415l-.475-.831c58.823-36.938 103.04-84.4 139.179-149.338 31.897-57.329 52.48-119.08 74.287-184.461 34.054-102.108 69.26-207.691 150.969-293.54 66.372-69.726 137.205-115.624 216.537-140.32 69.334-21.569 136.602-24.253 195.973-26.608 80.301-3.186 149.653-5.948 207.511-49.973 63.54-48.35 105.56-142.908 132.27-297.594l.89.173c-26.74 154.938-68.87 249.708-132.63 298.213-58.095 44.199-127.575 46.96-208.022 50.146-59.317 2.356-126.53 5.02-195.736 26.57-79.186 24.638-149.89 70.459-216.153 140.069-81.563 85.695-116.732 191.162-150.75 293.173-21.825 65.42-42.426 127.229-74.36 184.635-36.212 65.092-80.54 112.651-139.49 149.686z"/><path d="M37.204 928.086l-.475-.83c60.724-39.314 107.08-91.584 141.72-159.823 30.928-60.921 49.976-128.89 68.383-194.619 29.777-106.239 60.541-216.109 142.286-301.997 67.305-70.71 139.618-116.338 221.071-139.471 71.216-20.236 137.826-20.757 202.243-21.24 160.328-1.255 286.968-2.24 347.668-327.427l.9.193c-60.85 325.979-187.82 326.964-348.568 328.219-64.362.502-130.899 1.023-202.006 21.221-81.288 23.094-153.473 68.625-220.668 139.22-81.581 85.714-112.326 195.448-142.067 301.572-18.426 65.768-37.491 133.794-68.456 194.811-34.713 68.394-81.179 120.799-142.049 160.19l.018-.019z"/><path d="M50.64 941.776l-.494-.811c63.557-42.249 110.809-98.091 144.443-170.694 29.96-64.686 46.503-136.131 62.498-205.238 12.759-55.128 25.956-112.149 45.862-164.786 22.301-59.009 50.945-106.375 87.558-144.839 68.201-71.656 141.995-116.956 225.568-138.486C689.21 98.076 758.069 99.66 824.66 101.204c82.678 1.912 154.095 3.553 214.78-34.505 66.96-41.979 111.69-128.755 140.77-273.111l.9.193c-29.14 144.627-74 231.615-141.19 273.729-60.927 38.193-132.454 36.552-215.278 34.641-66.537-1.526-135.34-3.11-208.348 15.698-83.409 21.491-157.056 66.714-225.147 138.235-36.522 38.368-65.092 85.637-87.357 144.511-19.869 52.579-33.067 109.561-45.826 164.65-16.013 69.146-32.556 140.649-62.57 205.431-33.707 72.777-81.069 128.735-144.773 171.08l.018.02z"/><path d="M64.056 955.447l-.493-.811c148.355-101.026 176.56-252.025 203.833-398.042 10.675-57.116 21.698-116.164 39.922-170.037 20.4-60.284 48.057-108.229 84.542-146.577 69.06-72.564 144.316-117.497 230.028-137.366 75.036-17.398 146.198-13.652 215.001-10.022 80.411 4.23 156.362 8.226 218.471-26.878C1124 26.902 1170.05-56.089 1200.3-195.502l.9.213c-30.31 139.702-76.5 222.906-145.4 261.853-62.33 35.239-138.408 31.242-218.947 26.994-135.834-7.144-289.783-15.254-444.335 147.117-36.394 38.252-63.977 86.081-84.341 146.23-18.206 53.814-29.228 112.824-39.885 169.902-27.31 146.21-55.551 297.401-204.235 398.659v-.019z"/></g></g></g><mask id="prefix__b" style="mask-type:luminance" maskUnits="userSpaceOnUse" x="33" y="33" width="43" height="48"><path d="M76 55.012l-14.004 12.84L76 80.692H59.997l-6.002-5.503-8.003-7.338 14.003-12.84L76 55.012zM59.997 33L33.99 56.847l8.003 7.338L76 33H59.997z" fill="#fff"/></mask><g mask="url(#prefix__b)"><path fill="url(#prefix__pattern0_2419_3968)" d="M43.448 52.842h37.459v26.654H43.448z"/><path d="M59.997 55.012L45.995 67.853l7.999 7.336L76 55.012H59.997z" fill="#54C5F8"/></g><mask id="prefix__c" style="mask-type:luminance" maskUnits="userSpaceOnUse" x="33" y="33" width="43" height="48"><path d="M76 55.012l-14.004 12.84L76 80.692H59.997l-6.002-5.503-8.003-7.338 14.003-12.84L76 55.012zM59.997 33L33.99 56.847l8.003 7.338L76 33H59.997z" fill="#fff"/></mask><g mask="url(#prefix__c)"><path d="M76 33L41.993 64.185l-8.003-7.338L59.997 33H76z" fill="#54C5F8"/></g><mask id="prefix__d" style="mask-type:luminance" maskUnits="userSpaceOnUse" x="33" y="33" width="43" height="48"><path d="M75.998 55.012l-14.003 12.84 14.003 12.84H59.995l-6.002-5.503-8.002-7.338 14.003-12.84 16.004.001zM59.995 33L33.988 56.847l8.003 7.338L75.998 33H59.995z" fill="#fff"/></mask><g mask="url(#prefix__d)"><path d="M61.996 67.853l-8.004 7.336 6.003 5.505H76l-14.002-12.84z" fill="#01579B"/></g><mask id="prefix__e" style="mask-type:luminance" maskUnits="userSpaceOnUse" x="33" y="33" width="43" height="48"><path d="M76 55.012l-14.004 12.84L76 80.692H59.997l-6.002-5.503-8.003-7.338 14.003-12.84L76 55.012zM59.997 33L33.99 56.847l8.003 7.338L76 33H59.997z" fill="#fff"/></mask><g mask="url(#prefix__e)"><path d="M61.998 67.853l-8.004 7.336 11.869-3.766-3.865-3.57z" fill="url(#prefix__paint1_linear_2419_3968)"/></g><mask id="prefix__f" style="mask-type:luminance" maskUnits="userSpaceOnUse" x="33" y="33" width="43" height="48"><path d="M76 55.012l-14.004 12.84L76 80.692H59.997l-6.002-5.503-8.003-7.338 14.003-12.84L76 55.012zM59.997 33L33.99 56.847l8.003 7.338L76 33H59.997z" fill="#fff"/></mask><g mask="url(#prefix__f)"><path d="M53.995 60.516l-8.002 7.337 8.002 7.338 8.001-7.338-8.001-7.337z" fill="#29B6F6"/></g><path d="M32.815 80.679c4.868 0 8.814-3.619 8.814-8.082 0-4.464-3.946-8.083-8.814-8.083S24 68.133 24 72.597c0 4.463 3.947 8.082 8.815 8.082z" fill="#FB0967"/><path d="M100.82 75h-9.117V40.734h20.25v7.43H100.82v6.54h10.266v7.429H100.82V75zm25.383 0h-9.164V38.531h9.164V75zm32.18-26.555V75h-6.914l-1.149-3.305h-.539a6.956 6.956 0 01-2.086 2.18 8.787 8.787 0 01-2.765 1.195 12.46 12.46 0 01-3.164.399c-1.735 0-3.305-.336-4.711-1.008-1.391-.672-2.5-1.727-3.328-3.164-.813-1.438-1.219-3.29-1.219-5.555V48.445h9.164v14.508c0 1.719.242 3.031.726 3.938.5.89 1.313 1.336 2.438 1.336 1.156 0 2.047-.313 2.672-.938.64-.625 1.086-1.547 1.336-2.766.25-1.218.375-2.703.375-4.453V48.445h9.164zm19.336 19.782c.828 0 1.586-.086 2.273-.258.688-.172 1.406-.39 2.156-.656v6.68c-1 .437-2.062.788-3.187 1.054-1.109.281-2.531.422-4.266.422-1.718 0-3.234-.266-4.547-.797-1.312-.547-2.336-1.484-3.07-2.813-.719-1.343-1.078-3.21-1.078-5.601V55.313h-3.211v-3.727l4.078-2.883 2.367-5.578h6v5.32h6.516v6.867h-6.516v10.336c0 .86.219 1.508.657 1.946.437.422 1.047.633 1.828.633zm22.078 0c.828 0 1.586-.086 2.273-.258.688-.172 1.407-.39 2.157-.656v6.68c-1 .437-2.063.788-3.188 1.054-1.109.281-2.531.422-4.266.422-1.718 0-3.234-.266-4.546-.797-1.313-.547-2.336-1.484-3.071-2.813-.718-1.343-1.078-3.21-1.078-5.601V55.313h-3.211v-3.727l4.078-2.883 2.367-5.578h6v5.32h6.516v6.867h-6.516v10.336c0 .86.219 1.508.657 1.946.437.422 1.047.633 1.828.633zm21.023-20.25c2.578 0 4.805.453 6.68 1.359 1.875.89 3.32 2.234 4.336 4.031 1.016 1.797 1.523 4.047 1.523 6.75v4.078h-16.382c.078 1.39.593 2.532 1.546 3.422.969.89 2.391 1.336 4.266 1.336 1.656 0 3.172-.164 4.547-.492 1.391-.328 2.82-.836 4.289-1.523v6.585A15.895 15.895 0 01227.43 75c-1.516.313-3.43.469-5.742.469-2.672 0-5.063-.477-7.172-1.43-2.11-.953-3.774-2.43-4.993-4.43-1.203-2-1.804-4.57-1.804-7.71 0-3.188.547-5.805 1.64-7.852 1.094-2.063 2.625-3.586 4.594-4.57 1.969-1 4.258-1.5 6.867-1.5zm.328 6.234c-1.078 0-1.984.344-2.718 1.031-.719.672-1.141 1.735-1.266 3.188h7.875c-.016-.782-.172-1.492-.469-2.133a3.56 3.56 0 00-1.312-1.524c-.563-.375-1.266-.562-2.11-.562zm33.422-6.234c.5 0 1.024.039 1.571.117.547.062.953.117 1.218.164l-.82 8.648a7.643 7.643 0 00-1.148-.187c-.469-.063-1.125-.094-1.969-.094-.578 0-1.195.055-1.852.164a5.27 5.27 0 00-1.875.703c-.578.344-1.054.875-1.429 1.594-.375.703-.563 1.656-.563 2.86V75h-9.164V48.445h6.82l1.43 4.242h.445a9.629 9.629 0 011.852-2.367 9.269 9.269 0 012.555-1.71 7.166 7.166 0 012.929-.633zM290.898 75h-10.453l-6.773-13.102-2.742 1.641V75h-9.305V40.734h9.305v14.883c.39-.75.836-1.5 1.336-2.25.515-.75 1.015-1.46 1.5-2.133l7.195-10.5h10.125l-10.805 15.352L290.898 75zm16.149-27.023c3.359 0 5.984.836 7.875 2.507 1.89 1.657 2.836 4.024 2.836 7.102V75h-6.352l-1.758-3.516h-.187c-.75.938-1.523 1.704-2.32 2.297-.782.578-1.68 1-2.696 1.266-1.015.281-2.257.422-3.726.422-1.531 0-2.907-.313-4.125-.938-1.219-.625-2.18-1.57-2.883-2.836-.703-1.265-1.055-2.867-1.055-4.804 0-2.844.985-4.954 2.953-6.329 1.969-1.374 4.821-2.148 8.555-2.32l4.43-.14v-.375c0-1.188-.297-2.032-.891-2.532-.578-.5-1.359-.75-2.344-.75-1.047 0-2.218.188-3.515.563-1.282.36-2.571.828-3.867 1.406l-2.649-6.047c1.531-.781 3.266-1.375 5.203-1.781 1.938-.406 4.11-.61 6.516-.61zm1.594 15.164l-2.11.093c-1.687.063-2.875.36-3.562.891-.672.516-1.008 1.258-1.008 2.227 0 .906.242 1.578.727 2.015.484.422 1.124.633 1.921.633 1.11 0 2.055-.352 2.836-1.055.797-.703 1.196-1.617 1.196-2.742v-2.062zm24.562-14.696V75h-9.164V48.445h9.164zm-4.547-10.687c1.313 0 2.453.273 3.422.82.984.547 1.477 1.633 1.477 3.258 0 1.578-.493 2.648-1.477 3.21-.969.548-2.109.821-3.422.821-1.344 0-2.492-.273-3.445-.82-.938-.563-1.406-1.633-1.406-3.211 0-1.625.468-2.711 1.406-3.258.953-.547 2.101-.82 3.445-.82zm20.016 48.773c-3.766 0-6.672-.633-8.719-1.898-2.031-1.25-3.047-3.055-3.047-5.414 0-1.578.492-2.883 1.477-3.914.984-1.032 2.461-1.774 4.429-2.227-.812-.344-1.523-.898-2.132-1.664-.594-.766-.891-1.523-.891-2.273 0-.829.227-1.555.68-2.18.453-.64 1.398-1.398 2.836-2.273a7.143 7.143 0 01-3.258-2.86c-.781-1.297-1.172-2.875-1.172-4.734 0-1.922.437-3.563 1.313-4.922.89-1.36 2.179-2.399 3.867-3.117 1.703-.72 3.773-1.078 6.211-1.078.328 0 .828.03 1.5.093.672.047 1.351.11 2.039.188.687.062 1.218.125 1.593.187h9.258v4.43l-3.633 1.336c.25.453.438.945.563 1.477a7.35 7.35 0 01.187 1.687c0 2.86-1.007 5.078-3.023 6.656-2 1.578-4.992 2.367-8.977 2.367-.984 0-1.765-.062-2.343-.187-.11.203-.196.406-.258.61-.047.187-.07.367-.07.538 0 .36.21.649.632.868.438.203.961.343 1.571.421a14.36 14.36 0 001.781.118h4.406c2.985 0 5.219.625 6.703 1.875 1.485 1.25 2.227 3.132 2.227 5.648 0 3.234-1.383 5.75-4.149 7.547-2.75 1.797-6.617 2.695-11.601 2.695zm.445-5.719c1.11 0 2.227-.101 3.352-.304 1.125-.188 2.07-.5 2.836-.938.765-.437 1.148-1.015 1.148-1.734 0-.547-.226-.961-.68-1.242-.453-.266-1.039-.446-1.757-.54a17.587 17.587 0 00-2.274-.14h-3.562c-.657 0-1.258.102-1.805.305-.531.219-.953.508-1.266.867a1.81 1.81 0 00-.468 1.219c0 .75.406 1.351 1.218 1.804.813.47 1.899.704 3.258.704zm1.242-19.593c.875 0 1.547-.336 2.016-1.008.484-.672.727-1.68.727-3.023 0-1.376-.227-2.407-.68-3.094-.453-.688-1.141-1.032-2.063-1.032-.953 0-1.664.344-2.132 1.032-.469.672-.704 1.687-.704 3.047 0 1.359.235 2.382.704 3.07.468.672 1.179 1.008 2.132 1.008zm27.563-12.774V75h-9.164V48.445h9.164zm-4.547-10.687c1.313 0 2.453.273 3.422.82.984.547 1.476 1.633 1.476 3.258 0 1.578-.492 2.648-1.476 3.21-.969.548-2.109.821-3.422.821-1.344 0-2.492-.273-3.445-.82-.938-.563-1.407-1.633-1.407-3.211 0-1.625.469-2.711 1.407-3.258.953-.547 2.101-.82 3.445-.82zM419.922 75h-24.867v-6.094l8.367-8.46c1.734-1.813 3.078-3.266 4.031-4.36.969-1.094 1.649-2.023 2.039-2.79a5.191 5.191 0 00.586-2.39c0-1.015-.328-1.75-.984-2.203-.656-.453-1.43-.68-2.321-.68-1.078 0-2.171.313-3.281.938-1.094.61-2.336 1.516-3.726 2.719l-5.086-5.953a38.915 38.915 0 013.281-2.625c1.156-.844 2.523-1.532 4.101-2.063 1.579-.531 3.5-.797 5.766-.797 2.328 0 4.344.406 6.047 1.219 1.719.812 3.047 1.93 3.984 3.352.938 1.406 1.407 3.007 1.407 4.804 0 1.985-.368 3.758-1.102 5.32-.719 1.547-1.805 3.102-3.258 4.665-1.453 1.546-3.265 3.304-5.437 5.273l-2.508 2.25v.234h12.961V75zm28.266-17.086c0 2.75-.219 5.211-.657 7.383-.437 2.156-1.14 3.992-2.109 5.508a9.437 9.437 0 01-3.797 3.468c-1.578.797-3.516 1.196-5.813 1.196-2.859 0-5.203-.696-7.031-2.086-1.828-1.406-3.179-3.414-4.054-6.024-.86-2.625-1.289-5.773-1.289-9.445 0-3.703.39-6.867 1.171-9.492.797-2.64 2.102-4.664 3.914-6.07 1.813-1.407 4.243-2.11 7.289-2.11 2.86 0 5.196.703 7.008 2.11 1.828 1.39 3.18 3.406 4.055 6.046.875 2.625 1.313 5.797 1.313 9.516zm-15.54 0c0 2.234.079 4.11.235 5.625.172 1.516.484 2.656.937 3.422.469.75 1.133 1.125 1.992 1.125.86 0 1.516-.375 1.969-1.125.453-.766.766-1.898.938-3.398.172-1.516.258-3.399.258-5.649 0-2.266-.086-4.156-.258-5.672-.172-1.515-.485-2.656-.938-3.422-.453-.78-1.109-1.172-1.969-1.172-.859 0-1.523.391-1.992 1.172-.453.766-.765 1.907-.937 3.422-.156 1.516-.235 3.406-.235 5.672zM476.172 75h-24.867v-6.094l8.367-8.46c1.734-1.813 3.078-3.266 4.031-4.36.969-1.094 1.649-2.023 2.039-2.79a5.191 5.191 0 00.586-2.39c0-1.015-.328-1.75-.984-2.203-.656-.453-1.43-.68-2.321-.68-1.078 0-2.171.313-3.281.938-1.094.61-2.336 1.516-3.726 2.719l-5.086-5.953a38.915 38.915 0 013.281-2.625c1.156-.844 2.523-1.532 4.101-2.063 1.579-.531 3.5-.797 5.766-.797 2.328 0 4.344.406 6.047 1.219 1.719.812 3.047 1.93 3.984 3.352.938 1.406 1.407 3.007 1.407 4.804 0 1.985-.368 3.758-1.102 5.32-.719 1.547-1.805 3.102-3.258 4.665-1.453 1.546-3.265 3.304-5.437 5.273l-2.508 2.25v.234h12.961V75zm29.226-6.633h-3.773V75h-9.141v-6.633H478.82V61.57l14.25-20.836h8.555v20.72h3.773v6.913zm-12.914-6.914V57.47c0-.36.008-.813.024-1.36l.047-1.64c.031-.563.054-1.032.07-1.407.031-.39.055-.601.07-.632h-.257c-.297.703-.571 1.289-.821 1.758-.25.453-.578.992-.984 1.617l-3.797 5.648h5.648z" fill="#000"/></g><defs><linearGradient id="prefix__paint0_linear_2419_3968" x1="-22.195" y1="346.491" x2="1232.39" y2="346.491" gradientUnits="userSpaceOnUse"><stop stop-color="#00DBDE"/><stop offset="1" stop-color="#FC00FF"/></linearGradient><linearGradient id="prefix__paint1_linear_2419_3968" x1="56.329" y1="76.607" x2="61.773" y2="70.669" gradientUnits="userSpaceOnUse"><stop stop-color="#1A237E" stop-opacity=".4"/><stop offset="1" stop-color="#1A237E" stop-opacity="0"/></linearGradient><clipPath id="prefix__clip0_2419_3968"><path fill="#fff" d="M0 0h1200v630H0z"/></clipPath><pattern id="prefix__pattern0_2419_3968" patternContentUnits="objectBoundingBox" width="1" height="1"><use xlink:href="#prefix__image0_2419_3968" transform="scale(.00787 .0101)"/></pattern></defs></svg>