<svg width="48" height="48" viewBox="0 0 48 48" fill="none" xmlns="http://www.w3.org/2000/svg">
<g clip-path="url(#clip0_335_5099)">
<g clip-path="url(#clip1_335_5099)">
<path fill-rule="evenodd" clip-rule="evenodd" d="M23.9642 12C17.3483 12 12 17.5 12 24.3042C12 29.7432 15.4269 34.3472 20.1808 35.9767C20.7752 36.0992 20.9929 35.712 20.9929 35.3862C20.9929 35.101 20.9733 34.1232 20.9733 33.1045C17.6451 33.838 16.9521 31.6378 16.9521 31.6378C16.4172 30.2118 15.6247 29.8452 15.6247 29.8452C14.5354 29.0915 15.7041 29.0915 15.7041 29.0915C16.9124 29.173 17.5464 30.3545 17.5464 30.3545C18.6159 32.2285 20.3393 31.699 21.0326 31.373C21.1315 30.5785 21.4487 30.0285 21.7854 29.723C19.1309 29.4377 16.3381 28.3785 16.3381 23.6523C16.3381 22.3078 16.8132 21.2078 17.566 20.3523C17.4473 20.0468 17.0312 18.7835 17.6851 17.0928C17.6851 17.0928 18.6953 16.7668 20.9731 18.3558C21.9483 18.0864 22.954 17.9494 23.9642 17.9482C24.9744 17.9482 26.0042 18.091 26.9552 18.3558C29.2332 16.7668 30.2434 17.0928 30.2434 17.0928C30.8973 18.7835 30.481 20.0468 30.3622 20.3523C31.1349 21.2078 31.5904 22.3078 31.5904 23.6523C31.5904 28.3785 28.7976 29.4172 26.1233 29.723C26.5592 30.11 26.9353 30.8433 26.9353 32.0045C26.9353 33.6545 26.9158 34.9788 26.9158 35.386C26.9158 35.712 27.1337 36.0992 27.7278 35.977C32.4818 34.347 35.9087 29.7432 35.9087 24.3042C35.9282 17.5 30.5603 12 23.9642 12Z" fill="#24292F"/>
</g>
</g>
<rect x="4.5" y="4.5" width="39" height="39" rx="19.5" stroke="#79747E"/>
<defs>
<clipPath id="clip0_335_5099">
<rect x="4" y="4" width="40" height="40" rx="20" fill="white"/>
</clipPath>
<clipPath id="clip1_335_5099">
<rect width="24" height="24" fill="white" transform="translate(12 12)"/>
</clipPath>
</defs>
</svg>
