<svg width="48" height="48" viewBox="0 0 48 48" fill="none" xmlns="http://www.w3.org/2000/svg">
<g clip-path="url(#clip0_335_5089)">
<path d="M24.9779 23.5149C24.9779 25.9333 23.042 27.8938 20.6542 27.8938C18.2663 27.8938 16.3303 25.9333 16.3303 23.5149C16.3303 21.0965 18.2662 19.1359 20.6542 19.1359C23.0422 19.1359 24.9779 21.0965 24.9779 23.5149Z" fill="black"/>
<path d="M29.7211 23.5149C29.7211 25.7913 28.7531 27.6374 27.5591 27.6374C26.3651 27.6374 25.3972 25.7913 25.3972 23.5149C25.3972 21.2385 26.365 19.3923 27.559 19.3923C28.753 19.3923 29.7209 21.2379 29.7209 23.5149" fill="black"/>
<path d="M31.6612 23.5149C31.6612 25.554 31.3208 27.208 30.9008 27.208C30.4808 27.208 30.1406 25.5544 30.1406 23.5149C30.1406 21.4754 30.481 19.8218 30.9008 19.8218C31.3207 19.8218 31.6612 21.4752 31.6612 23.5149Z" fill="black"/>
</g>
<rect x="4.5" y="4.5" width="39" height="39" rx="19.5" stroke="#79747E"/>
<defs>
<clipPath id="clip0_335_5089">
<rect x="4" y="4" width="40" height="40" rx="20" fill="white"/>
</clipPath>
</defs>
</svg>
