<svg width="1440" height="673" fill="none" xmlns="http://www.w3.org/2000/svg"><mask id="prefix__a" style="mask-type:alpha" maskUnits="userSpaceOnUse" x="0" y="0" width="1440" height="673"><path fill="#D9D9D9" d="M0 0h1440v673H0z"/></mask><g opacity=".4" fill="#A6A6A6" mask="url(#prefix__a)"><path d="M136.533 577.595C82.001 539.047 26.915 487.664-24 422.555c.486-.135.972-.27 1.444-.392 118.969 151.545 257.155 226.79 365.692 243.85 111.237 17.101 187.09-22.971 230.813-52.854 14.574-9.974 28.474-20.758 41.591-31.421 36.597-29.842 72.048-62.005 114.651-89.525 45.045-29.086 92.964-50.209 141.599-62.572 64.613-16.318 133.92-18.424 202.31-28.83 5.89-.891 11.76-1.835 17.6-2.848 101.29-16.25 218.88-65.379 286.88-152.812 33.33-42.111 51.23-91.577 51.78-134.606.74-46.82-17.39-82.385-46.03-105.344.34-.405.69-.796 1.03-1.201 28.94 23.093 47.31 58.928 46.62 106.127-.51 43.325-18.49 93.169-52.03 135.604-68.33 87.933-186.41 137.291-288.07 153.596a849.918 849.918 0 01-17.64 2.847c-68.3 10.393-137.486 12.499-201.775 28.762-48.338 12.31-95.961 33.365-140.722 62.343-42.441 27.493-77.784 59.67-114.26 89.526-13.103 10.689-27.003 21.514-41.577 31.515-93.464 63.908-179.493 61.87-232.014 53.354-62.831-9.921-134.488-38.575-207.373-90.066l.014-.013z"/><path d="M109.025 560.024C63.891 526.418 18.11 483.665-25 431.764l1.295-.485c53.216 64.028 110.426 113.999 165.477 150.115 67.694 44.439 134.43 69.749 193.151 78.828 102.721 15.515 179.644-15.366 236.098-47.529 11.199-6.395 22.129-13.086 32.518-19.71 46.753-29.991 87.893-60.359 138.572-89.082 49.816-28.291 99.658-50.686 147.477-65.108 64.82-19.454 133.162-25.336 199.952-39.002 4.25-.864 8.49-1.754 12.7-2.685 102.72-21.721 208.77-72.312 270.96-154.257 69.52-90.876 61.33-192.585 9.7-235.743L1383.93 6c52.09 43.347 60.57 145.784-9.42 237.375-62.46 82.377-168.93 133.198-272.02 154.999-4.22.931-8.46 1.821-12.72 2.685-66.67 13.639-134.93 19.521-199.44 38.908-47.603 14.382-97.216 36.723-146.789 64.96-50.517 28.722-91.576 59.117-138.221 89.149-10.389 6.637-21.319 13.356-32.504 19.764-24.881 14.273-59.639 31.717-102.29 42.281-43.595 10.793-88.257 12.83-134.848 5.68-59.153-9.093-126.374-34.551-194.513-79.26a667.414 667.414 0 01-32.154-22.517h.014z"/><path d="M75.421 540.16C41.106 512.936 6.641 480.593-27 442.606c.378-.202.769-.392 1.147-.594C94.373 576.878 221.142 640.307 325.64 656.269c98.807 14.558 176.489-11.64 241.304-42.2.674-.324 1.349-.648 2.037-.973 63.02-30.37 118.095-62.875 184.164-95.947 56.181-28.278 106.428-51.559 153.41-67.939 65.124-22.728 132.444-32.505 197.574-49.561 2.48-.648 4.96-1.31 7.43-1.971 96.22-25.361 195.5-74.976 255.02-155.839 29.85-40.121 46.77-87.075 48.72-128.506 2.24-44.874-11.81-80.08-35.09-103.307.33-.337.68-.675 1.02-1.026 23.53 23.376 37.76 58.81 35.54 104.023-1.92 41.66-18.91 88.925-48.92 129.302-59.77 81.282-159.39 131.099-255.94 156.541-2.48.675-4.96 1.323-7.44 1.985-65.02 17.029-132.264 26.806-197.118 49.466-46.821 16.354-96.905 39.608-152.911 67.872-65.948 33.085-120.928 65.644-183.854 96.082-.675.324-1.349.649-2.037.973-29.527 14.058-65.556 28.966-106.441 37.946-45.134 9.913-90.093 11.466-135.739 4.632-75.997-11.465-162.609-47.723-250.976-117.648l.027-.014z"/><path d="M34.441 511.275C13.564 493.401-7.312 473.665-28 451.891l.972-.689C93.023 576.72 215.935 635.28 317.579 650.373c95.019 13.674 172.372-8.816 235.258-32.386 3.806-1.43 7.612-2.888 11.39-4.36 77.016-30.32 136.664-56.279 201.75-85.019 41.389-18.143 100.295-47.059 159.538-70.886 65.693-26.148 132.075-39.998 195.595-60.585.53-.175 1.05-.337 1.58-.513 100.02-32.56 185.31-82.036 239.25-157.133 28.14-39.135 44.58-84.844 47.22-125.437 2.97-43.873-9.07-78.796-29.7-102.123.34-.31.69-.62 1.02-.931 20.84 23.462 33.03 58.614 30.08 102.785-2.61 40.808-19.1 86.774-47.38 126.152-54.14 75.461-139.72 125.126-240.04 157.808-.53.175-1.06.337-1.58.513-63.44 20.573-129.744 34.423-195.195 60.504-59.095 23.813-117.892 52.729-159.187 70.872-64.992 28.781-124.572 54.78-201.48 85.168a1433.847 1433.847 0 01-11.376 4.373c-62.995 23.705-140.496 46.357-235.96 32.696-84.789-12.447-183.491-54.929-283.894-140.569l-.027-.027z"/><path d="M-21.325 470.541A999.23 999.23 0 01-30 462.202l.796-.796a979.067 979.067 0 008.648 8.325C96.498 580.163 212.081 631.546 308.236 645.404c83.405 11.618 152.86-2.523 215.637-20.348 12.615-3.616 24.379-7.219 36.117-10.889 74.582-23.749 140.448-43.031 217.445-73.257 59.242-23.438 112.736-50.412 165.61-74.039 66.545-29.74 132.065-48.348 188.885-70.423 1.05-.405 2.1-.823 3.16-1.228 84.49-32.708 168.32-81.676 220.18-157.119 26.4-38.173 42.35-82.662 45.67-122.414 3.68-42.855-6.36-77.453-24.31-100.85.33-.27.67-.554 1.01-.837 18.12 23.533 28.28 58.333 24.62 101.445-3.29 39.941-19.28 84.658-45.8 123.034-52.05 75.78-136.11 124.923-220.85 157.74-1.05.418-2.1.823-3.16 1.228-56.74 22.061-122.19 40.669-188.515 70.341-52.779 23.614-106.233 50.615-165.421 74.08-76.929 30.28-142.741 49.616-217.215 73.418-11.725 3.684-23.476 7.3-36.091 10.93-62.884 17.92-132.474 32.182-216.217 20.591-96.627-13.83-212.804-65.403-330.316-176.279v.013z"/><path d="M-30.973 471.555l.607-.89c74.948 69.318 201.955 152.544 330.244 168.73 72.911 9.874 136.827 1.12 195.361-11.263 21.633-4.613 41.675-9.55 61.433-14.406 69.216-17.239 131.607-29.621 199.784-50.529a921.536 921.536 0 0033.61-11.128c12.395-4.384 24.695-9.105 37.507-14.338 46.288-18.898 91.187-41.559 134.224-63.06 62.393-31.254 121.573-52.849 180.243-79.503 5.34-2.441 10.67-4.923 15.98-7.459 73.59-34.936 145.58-82.524 191.44-152.032 24.68-37.215 40.13-80.514 44.11-119.442 4.39-41.815-3.67-76.05-18.95-99.507.34-.242.68-.485 1.01-.728 15.42 23.578 23.57 58.001 19.2 100.059-3.97 39.091-19.45 82.578-44.23 119.983-45.99 69.804-118.17 117.554-191.95 152.584a976.804 976.804 0 01-15.99 7.473c-58.6 26.64-117.73 48.222-179.946 79.435-42.997 21.515-87.882 44.203-134.156 63.127-12.813 5.247-25.126 9.968-37.534 14.379a924.947 924.947 0 01-33.637 11.169c-68.137 20.948-130.501 33.371-199.595 50.65-19.732 4.87-39.774 9.82-61.394 14.46-58.628 12.464-122.651 21.299-195.805 11.465C171.738 624.638 44.217 541.143-31 471.582l.027-.027z"/><path d="M-32 481.999c.135-.323.283-.647.418-.984C50.7 549.549 170.515 619.363 291.665 634.427c63.058 8.253 120.759 3.533 174.184-4.491 31.083-4.706 59.725-10.357 87.76-15.549 61.478-11.476 118.829-18.799 177.354-31.273 23.717-5.084 47.812-11.125 72.447-18.92 28.898-9.157 57.58-20.646 86.734-34.105 31.367-14.457 62.356-30.895 91.295-46.889 63.731-35.13 122.541-62.209 171.401-88.344 8.68-4.639 17.34-9.386 25.96-14.308 63.69-36.182 125.26-82.195 165.67-146.278 22.99-36.29 37.94-78.405 42.58-116.529 5.06-40.78-1.01-74.615-13.63-98.12.34-.203.66-.419 1-.621 12.72 23.627 18.86 57.624 13.82 98.593-4.62 38.258-19.61 80.549-42.66 116.987-40.52 64.34-102.24 110.474-166.08 146.763-8.62 4.923-17.29 9.683-25.97 14.322-48.81 26.121-107.55 53.187-171.147 88.29-28.925 15.994-59.901 32.46-91.267 46.943-29.182 13.486-57.891 25.002-86.829 34.199-24.662 7.822-48.784 13.877-72.528 18.988-58.484 12.501-115.781 19.864-177.152 31.368-27.994 5.205-56.622 10.882-87.692 15.616-53.506 8.091-111.275 12.879-174.521 4.652-121.596-15.023-241.828-84.999-324.38-153.722H-32z"/><path d="M-33.986 492.221c.067-.351.148-.703.215-1.067 161.026 114.425 253.737 128.038 316.169 138.221 53.406 6.739 104.045 4.942 151.406.364 41.14-4.011 78.853-9.939 115.608-14.733 59.275-7.847 114.421-11.317 171.348-19.38 31.115-4.456 62.77-10.371 95.099-19.581 47.536-13.492 95.436-34.91 138.587-58.503 15.476-8.427 31.101-17.529 45.764-26.442 62.72-38.097 117.7-69.266 162.22-97.059 11.21-6.995 22.65-14.342 33.51-21.675 54.64-36.746 106.91-81.042 142.3-140.192 46.5-76.667 53.18-164.38 32.7-210.66.32-.176.64-.352.97-.514 20.61 46.443 14 134.494-32.63 211.457-35.49 59.353-87.87 103.77-142.61 140.611-10.86 7.333-22.3 14.694-33.51 21.689-44.48 27.793-99.41 58.962-162.03 97.032-14.665 8.926-30.277 18.028-45.767 26.482-43.177 23.647-91.132 45.106-138.762 58.651-32.383 9.251-64.078 15.193-95.234 19.663-56.886 8.076-111.992 11.574-171.132 19.447-36.715 4.821-74.401 10.777-115.514 14.815-47.414 4.632-98.094 6.469-151.635-.243C169.178 616.842 55.162 558.542-34 492.221h.014z"/><path d="M-35 502.701c0-.378.014-.742.027-1.12 93.77 61.305 199.832 109.651 308.996 122.665 43.58 5.265 86.107 5.441 126.233 3.497 52.052-2.552 99.504-8.397 145.741-12.124 59.163-4.9 114.157-5.224 171.418-9.949 36.604-3.065 73.95-8.06 111.93-17.848 71.158-18.01 140.548-55.204 190.695-88.982 51.48-34.467 98.77-66.315 152.68-105.371 13.07-9.545 25.9-19.117 39.11-29.553 46.27-36.573 90.13-78.911 120.85-133.223 42.53-73.996 51.62-159.536 36.42-206.288.31-.135.63-.27.94-.405 15.32 46.887 6.28 132.697-36.35 206.922-30.78 54.475-74.72 96.907-121.06 133.574-13.21 10.463-26.04 20.035-39.11 29.58-53.89 39.057-101.14 70.905-152.55 105.372-50.187 33.845-119.644 71.12-190.95 89.211-38.061 9.828-75.461 14.837-112.119 17.929-57.207 4.738-112.147 5.089-171.175 10.017-46.143 3.753-93.581 9.639-145.593 12.218-40.166 1.985-82.734 1.836-126.394-3.402C165.317 612.46 59.013 564.088-34.959 502.715l-.041-.014z"/><path d="M-35.838 512.19l-.162-1.161a1334.05 1334.05 0 0020.62 11.377c78.228 42.755 178.548 84.255 281.255 95.632 33.13 3.806 66.219 5.061 97.675 4.953 64.207-.283 122.45-5.776 179.276-7.773 60.092-2.241 115.906.229 174.459-1.674 41.213-1.39 83.437-5.128 126.134-15.129 60.767-14.373 126.837-42.593 197.131-93.243 55.18-40.15 99.68-76.657 142.88-113.379 14.45-12.349 28.74-24.765 43.29-38.301 38.43-35.764 74.57-75.834 100.87-125.323 38.48-71.043 50.02-154.367 40.1-201.872.29-.095.6-.203.9-.297 9.97 47.614-1.51 131.14-40.05 202.358-26.33 49.611-62.52 89.747-101.01 125.593-14.55 13.549-28.85 25.966-43.29 38.314-43.17 36.736-87.65 73.243-142.79 113.407-70.371 50.771-136.549 79.072-197.464 93.513-42.805 10.041-85.11 13.792-126.377 15.196-58.499 1.916-114.259-.54-174.203 1.728-56.731 2.024-114.934 7.557-179.101 7.881-31.483.135-64.585-1.093-97.768-4.885-102.897-11.31-203.378-52.81-281.728-95.578a1345.248 1345.248 0 01-20.634-11.364l-.013.027z"/><path d="M-36.676 521.914l-.324-1.175c18.884 8.909 38.981 18.061 60.266 27.024 70.126 29.642 150.328 55.288 234.266 64.278 21.447 2.322 43.176 3.78 64.003 4.59 74.752 2.969 148.628-1.89 217.675-1.539 61.345.27 118.32 5.372 178.505 6.06 45.496.459 92.355-1.862 139.416-12.026 67.455-14.309 138.984-46.92 203.469-97.795 54.75-43.397 94.45-82.825 132.7-121.16 15.54-15.685 31.07-31.492 46.64-48.702 30.89-34.15 59.72-71.432 81.65-115.747 33.67-66.222 48.29-149.182 43.72-197.533.28-.067.56-.122.86-.189 4.61 48.432-9.98 131.54-43.68 197.884-21.94 44.409-50.79 81.745-81.71 115.95-15.58 17.21-31.1 33.043-46.63 48.715-38.22 38.335-77.91 77.804-132.64 121.227-64.586 51.01-136.263 83.716-203.88 98.078-47.169 10.205-94.122 12.54-139.699 12.095-60.131-.675-117.052-5.75-178.262-6.007-68.94-.324-142.761 4.59-217.474 1.674-20.826-.796-42.582-2.227-64.042-4.549-84.046-8.949-164.343-34.569-234.55-64.184-21.298-8.949-41.382-18.088-60.266-26.969h-.013z"/><path d="M-37.528 532.515c-.162-.391-.31-.769-.472-1.161 34.051 12.808 72.81 27.034 113.617 39.37 52.972 16.114 112.74 29.962 173.601 36.089 7.62.769 15.239 1.458 22.859 2.065 90.624 7.288 179.535 3.185 263.578 6.91 63.153 2.727 121.829 10.325 184.201 13.375 49.344 2.349 100.428 1.485 151.417-8.665 72.769-14.009 150.177-51.084 209.907-102.559 22.47-19.219 41.57-37.925 59.12-56.442 23.24-24.55 43.48-48.52 63.14-72.166 16.67-20.069 33.58-40.462 50.14-62.597 23.29-31.176 44.93-64.472 62.32-102.532 32.07-68.63 46.14-147.53 47.3-193.107.27-.027.53-.054.8-.095-1.15 45.605-15.2 124.599-47.27 193.31-17.38 38.114-39.04 71.464-62.34 102.681-16.55 22.148-33.45 42.554-50.1 62.624-19.66 23.659-39.89 47.629-63.11 72.206-17.55 18.53-36.66 37.263-59.14 56.509-59.82 51.611-137.405 88.807-210.349 102.87-51.124 10.19-102.289 11.067-151.727 8.719-62.318-3.037-120.94-10.622-183.959-13.307-83.908-3.672-172.752.472-263.322-6.749a1089.341 1089.341 0 01-22.871-2.051c-60.915-6.087-120.738-19.894-173.75-35.995-40.821-12.322-79.58-26.507-113.617-39.275l.027-.027z"/><path d="M-38.42 542.523c-.189-.378-.391-.742-.58-1.12 54.977 15.097 120.062 34.273 193.932 47.588 28.028 5.064 56.799 9.183 86.204 11.965 98.484 9.426 197.237 7.44 291.39 14.962 65.206 5.159 125.837 15.206 190.679 20.486 53.101 4.267 108.362 4.861 163.204-5.28 79.295-14.179 159.021-53.922 216.561-107.641 31.66-29.358 55.29-57.906 76.33-86.008 12.72-17.042 24.03-33.355 35.33-49.844 18.56-27.116 37.78-55.096 55.77-85.359 14.97-25.185 28.92-51.64 40.96-80.498 10.33-24.767 19.67-51.68 27.09-77.703 12.09-41.957 19.19-81.43 23.82-111.071h.73c-4.62 29.642-11.7 69.128-23.78 111.112-7.42 26.036-16.74 52.976-27.08 77.756-12.03 28.886-25.99 55.367-40.96 80.579-17.97 30.277-37.18 58.271-55.73 85.387-11.28 16.475-22.59 32.815-35.3 49.857-21.05 28.129-44.67 56.717-76.36 86.116-57.62 53.868-137.533 93.732-217.03 107.965-54.991 10.182-110.346 9.588-163.528 5.321-64.788-5.267-125.365-15.3-190.45-20.432-94.004-7.481-192.677-5.442-291.08-14.801-29.418-2.768-58.202-6.873-86.244-11.91-73.856-13.261-138.954-32.383-193.878-47.427z"/><path d="M-39.352 552.317l-.648-1.053c70.405 11.68 161.836 33.718 272.834 43.494 85.938 7.967 192.74 9.615 296.1 21.012 67.328 7.589 130.027 20.012 197.477 27.439 56.761 6.198 116.14 8.237 174.75-1.918 84.36-14.003 168.489-57.498 223.109-112.916 36.01-36.189 59.62-71.689 80.09-106.299 7.34-12.477 13.94-24.319 20.59-36.405 23.69-43.171 48.3-87.394 70.25-139.504 3.68-8.777 7.26-17.73 10.7-26.885 31.39-84.627 43.17-144.865 54.45-184.282l.65.081c-11.27 39.403-23.04 99.642-54.39 184.268-3.42 9.155-7 18.108-10.68 26.899-21.93 52.137-46.54 96.36-70.18 139.531-6.64 12.086-13.24 23.942-20.57 36.419-20.47 34.65-44.06 70.191-80.12 106.434-54.71 55.553-139.027 99.196-223.602 113.253-58.758 10.182-118.232 8.143-175.074 1.945-67.395-7.414-130.054-19.837-197.261-27.385-103.198-11.357-209.905-12.937-295.762-20.85-110.972-9.709-202.376-31.665-272.713-43.292v.014z"/><path d="M-40.312 562.984c-.23-.324-.459-.648-.688-.959 66.181 3.267 154.238 18.279 265.304 27.337 116.623 9.206 214.647 14.471 300.559 27.107 69.459 10.138 137.38 25.339 204.464 34.289 60.355 8.126 123.825 11.569 186.135 1.363 90.308-14.174 176.828-60.532 229.528-118.418 38.47-41.862 60.05-83.373 78.18-123.453 3.8-8.437 7.57-17.185 11.21-25.744 21.02-49.867 43.66-102.745 65.13-166.787 24.89-74.045 41.83-138.977 57.92-179.719.19.054.38.094.57.148-16.06 40.702-32.99 105.607-57.83 179.625-21.43 64.042-44.04 116.92-65.04 166.774-3.63 8.558-7.4 17.306-11.19 25.757-18.13 40.107-39.69 81.672-78.21 123.615-52.78 58.035-139.49 104.527-230.025 118.756-62.458 10.232-126.023 6.776-186.459-1.35-67.044-8.95-134.924-24.124-204.261-34.235-85.791-12.595-183.694-17.806-300.195-26.945-111.012-8.991-199.016-23.935-265.116-27.134l.014-.027z"/><path d="M-41.312 572.663c-.23-.283-.459-.58-.688-.864 68.162-4.871 155.748 3.739 257.958 11.08 78.076 6.127 190.011 13.523 305.211 33.253 71.669 12.591 142.002 30.189 211.823 41.053 63.994 10.04 131.657 14.858 197.728 4.548 96.3-14.427 185.3-63.766 236.13-124.171 40.07-47.167 58.29-94.401 72.95-139.57 1.69-5.263 3.33-10.526 4.94-15.776 18.66-61.215 34.01-114.211 49.38-167.086 20.74-70.838 39.81-133.47 61.39-175.13.17.068.33.121.49.189-21.56 41.593-40.59 104.184-61.28 174.954-15.34 52.862-30.66 105.831-49.28 167.046-1.6 5.25-3.24 10.5-4.94 15.776-14.66 45.223-32.87 92.498-72.96 139.759-50.91 60.553-140.09 110.041-236.618 124.508-66.206 10.338-133.963 5.52-198.038-4.534-69.78-10.851-140.073-28.449-211.648-41.013-115.038-19.69-226.838-27.018-304.82-33.091-102.141-7.287-189.647-15.843-257.728-10.917v-.014z"/><path d="M-42.339 582.392c-.216-.256-.445-.512-.661-.769 67.583-13.735 154.784-11.212 250.594-5.248 106.536 7.151 213.179 20.13 309.812 39.451 73.911 15.044 146.702 35.026 219.359 47.749 67.65 11.941 139.578 18.08 209.442 7.597 102.343-14.774 193.833-67.232 242.753-130.214 41.13-52.445 54.82-105.388 65.05-155.593.38-1.862.74-3.724 1.1-5.573 9.42-48.882 18.62-105.738 33.65-167.29 7.59-31.127 16.83-62.092 26.87-90.021 11.43-31.693 23.61-58.462 37.97-80.481.13.068.27.148.4.216-14.33 21.979-26.49 48.707-37.89 80.346-10.02 27.889-19.24 58.84-26.81 89.94-14.99 61.525-24.16 118.368-33.55 167.236-.37 1.862-.73 3.711-1.09 5.573-10.22 50.259-23.89 103.243-65.05 155.782-49.01 63.116-140.67 115.709-243.228 130.524-69.985 10.51-141.994 4.371-209.725-7.596-72.63-12.71-145.381-32.692-219.197-47.709-96.511-19.28-203.02-32.22-309.421-39.303-95.728-5.91-182.835-8.379-250.35 5.397l-.028-.014z"/><path d="M-42.38 592.228l-.62-.661c66.585-23.285 151.081-26.59 243.036-21.679 49.51 2.725 100.505 8.337 152.43 15.811 55.364 7.986 109.15 17.834 161.736 29.895 76.08 17.497 151.364 39.864 226.878 54.38 71.319 13.855 147.534 21.261 221.16 10.509 52.83-7.595 104.81-25.268 148.13-49.726 43.1-24.202 78.02-55.055 101.11-86.798 41.82-57.807 49.51-116.329 54.1-166.662 4.54-53.976 6.35-109.03 17.92-167.431 5.95-30.354 14.7-60.424 25.26-87.567 11.94-30.556 25.84-56.485 42.92-78.299.1.08.21.148.32.23-17.05 21.773-30.93 47.661-42.83 78.163-10.55 27.103-19.28 57.146-25.21 87.46-11.55 58.36-13.33 113.401-17.85 167.35-4.57 50.373-12.23 108.936-54.08 166.837-23.11 31.811-58.09 62.731-101.27 86.987-43.4 24.499-95.48 42.225-148.413 49.834-73.76 10.765-150.042 3.346-221.429-10.509-75.487-14.516-150.744-36.883-226.743-54.354-52.505-12.047-106.224-21.854-161.521-29.827-51.871-7.46-102.824-13.045-152.268-15.744-91.873-4.883-176.275-1.51-242.78 21.788l.014.013z"/><path d="M-43.447 603.096c-.189-.189-.378-.364-.553-.553 64.829-33.118 146.833-42.13 235.637-38.177 48.759 2.239 100.069 8.553 153.43 17.375a1984.533 1984.533 0 01165.263 34.657c78.307 19.965 156.169 44.693 234.665 60.976 75.069 15.743 155.724 24.363 233.221 13.274 55.454-7.811 109.514-26.387 153.984-52.018 44.59-25.564 79.75-58.022 101.93-91.114 38.57-57.819 42.53-117.392 41.84-171.825-.07-4.452-.18-8.904-.3-13.356-1.58-50.494-5.22-101.959 2.54-154.14 4.37-29.678 12.61-58.871 23.68-85.15 12.44-29.436 28.03-54.474 47.85-76.045.08.068.18.148.26.216-19.78 21.53-35.35 46.528-47.76 75.91-11.05 26.252-19.28 55.404-23.63 85.042-7.73 52.14-4.06 103.579-2.46 154.059.12 4.452.22 8.904.31 13.356.71 54.46-3.23 114.074-41.83 171.987-22.21 33.146-57.42 65.671-102.08 91.289-44.54 25.672-98.69 44.302-154.239 52.126-77.633 11.103-158.328 2.483-233.465-13.274-78.482-16.283-156.317-41.01-234.557-60.949a1979.878 1979.878 0 00-165.074-34.589c-53.32-8.796-104.576-15.082-153.282-17.308-88.723-3.912-170.645 5.14-235.407 38.272l.027-.041z"/></g></svg>