<svg width="1541" height="1196" viewBox="0 0 1541 1196" fill="none" xmlns="http://www.w3.org/2000/svg">
<g clip-path="url(#clip0_344_33)">
<path opacity="0.35" d="M1299.76 0C1179.79 552.969 877.865 172.775 535.556 532.383C352.654 724.525 88.3048 726.055 0 720.508V1195.51H98.446C229.149 1153.38 431.926 1061.08 625.853 863.18C947.902 534.535 1218.09 693.083 1392.78 442.29C1483.78 311.621 1523.66 137.172 1541 0H1299.76Z" fill="url(#paint0_linear_344_33)"/>
<g opacity="0.4">
<path d="M-184.628 1100.41C-189.803 1100.41 -194.601 1100.26 -199 1099.99L-198.929 1098.74C-147.299 1102 -40.5573 1087.02 90.3884 1034.14C192.238 993.019 340.989 915.273 471.206 778.49C611.913 630.674 725.806 565.923 817.329 513.918C915.368 458.186 986.192 417.934 1036.11 306.867C1088.02 191.353 1114.93 2.68934 1126.15 -324L1127.32 -323.95C1116.1 2.91299 1089.15 191.726 1037.16 307.414C987.086 418.853 916.097 459.205 817.87 515.036C726.417 567.016 612.595 631.718 472.029 779.409C341.672 916.366 192.755 994.187 90.8118 1035.36C-29.1492 1083.79 -128.905 1100.46 -184.628 1100.46V1100.41Z" fill="#A6A6A6"/>
<path d="M-181.664 1117.58L-181.735 1116.34C-153.767 1114.62 -50.4598 1103.09 105.254 1027.38C200.306 981.143 341.272 896.986 472.97 758.613C619.158 605.033 738.367 542.84 834.171 492.873C1027.28 392.143 1124.19 341.579 1152 -310.011L1153.17 -309.961C1125.35 342.374 1028.2 393.037 834.688 493.991C738.978 543.934 619.84 606.051 473.794 759.507C341.978 898.005 200.87 982.236 105.725 1028.5C-50.1775 1104.31 -153.673 1115.84 -181.688 1117.58H-181.664Z" fill="#A6A6A6"/>
<path d="M-164.329 1135.19L-164.517 1133.98C-86.66 1121.43 17.071 1080.13 120.096 1020.65C245.491 948.27 368.11 850.795 474.734 738.784C626.05 579.812 750.645 520.577 850.753 472.995C945.546 427.922 1020.44 392.316 1074.16 290.195C1130.59 182.905 1162.56 2.1426 1177.87 -295.973L1179.05 -295.898C1171.1 -140.927 1158.75 -18.9526 1141.27 77.0068C1124.76 167.724 1103.14 237.668 1075.2 290.791C1021.29 393.285 946.252 428.941 851.247 474.113C751.233 521.67 626.756 580.831 475.581 739.654C368.886 851.739 246.173 949.288 120.684 1021.72C17.5415 1081.25 -86.3542 1122.62 -164.329 1135.17V1135.19Z" fill="#A6A6A6"/>
<path d="M-147.017 1152.79L-147.275 1151.57C-66.6898 1132.04 30.9021 1084.43 134.986 1013.89C247.067 937.908 365.17 835.936 476.546 718.931C632.683 554.891 762.688 499.01 867.148 454.086C962.506 413.088 1037.82 380.713 1093.45 282.964C1152.42 179.327 1186.46 5.09931 1203.74 -281.959L1204.92 -281.884C1187.61 5.37263 1153.53 179.774 1094.46 283.585C1038.65 381.682 963.164 414.132 867.595 455.204C763.229 500.078 633.365 555.909 477.393 719.776C365.97 836.83 247.796 938.902 135.645 1014.91C31.4666 1085.52 -66.2664 1133.21 -146.993 1152.76L-147.017 1152.79Z" fill="#A6A6A6"/>
<path d="M-129.705 1170.38L-130.034 1169.19C-47.3081 1143.54 44.2387 1090.54 149.851 1007.16C245.279 931.821 352.703 831.041 478.31 699.078C638.963 530.267 774.449 478.088 883.308 436.147C979.394 399.124 1055.3 369.879 1112.83 276.454C1174.34 176.594 1210.35 8.70219 1229.6 -267.896L1230.77 -267.796C1211.51 9.02521 1175.42 177.091 1113.82 277.15C1056.08 370.898 980.029 400.218 883.707 437.314C774.966 479.207 639.622 531.361 479.133 699.973C353.503 831.961 246.009 932.79 150.557 1008.15C44.8267 1091.64 -46.8377 1144.71 -129.705 1170.38Z" fill="#A6A6A6"/>
<path d="M-112.393 1187.97L-112.769 1186.8C-34.1122 1157.93 47.0144 1105.03 142.56 1020.38C229.873 943.003 320.878 847.043 426.256 735.927C443.827 717.391 461.774 698.482 480.074 679.226C645.009 505.967 786.022 457.764 899.326 419.027C996.306 385.881 1072.92 359.693 1132.36 270.566C1196.36 174.607 1234.32 12.8521 1255.45 -253.856L1256.62 -253.757C1235.45 13.2 1197.44 175.128 1133.32 271.287C1073.67 360.761 996.894 386.999 899.702 420.22C786.516 458.907 645.644 507.061 480.921 680.121C462.597 699.352 444.674 718.261 427.103 736.797C321.702 847.938 230.672 943.922 143.336 1021.32C47.6965 1106.07 -33.5712 1159.02 -112.369 1187.97H-112.393Z" fill="#A6A6A6"/>
<path d="M-95.1044 1205.59L-95.5278 1204.44C50.119 1143.84 163.941 1014.71 308.035 851.242C362.112 789.895 418.047 726.46 481.861 659.398C650.795 481.915 797.406 438.01 915.227 402.703C1013.24 373.358 1090.65 350.151 1151.97 265.249C1184.17 220.673 1209.86 161.239 1230.47 83.5916C1252.72 -0.292115 1269.35 -106.091 1281.3 -239.843L1282.47 -239.719C1270.52 -105.892 1253.87 -0.0188048 1231.59 83.9395C1210.94 161.736 1185.21 221.294 1152.91 266.019C1091.33 351.244 1009.88 375.644 915.556 403.895C797.876 439.153 651.406 483.008 482.685 660.267C418.893 727.28 362.982 790.715 308.906 852.062C164.694 1015.66 50.8012 1144.86 -95.0809 1205.56L-95.1044 1205.59Z" fill="#A6A6A6"/>
<path d="M-77.8157 1223.18L-78.2861 1222.04C60.2571 1158.5 157.661 1034.94 270.448 891.842C331.393 814.518 400.476 726.883 483.602 639.545C656.323 458.087 808.626 418.729 931.01 387.099C1026.23 362.475 1108.46 341.231 1171.71 260.503C1204.99 218.014 1231.64 161.065 1253.23 86.3994C1276.64 5.44761 1294.26 -96.6739 1307.15 -225.779L1308.32 -225.655C1295.43 -96.4503 1277.77 5.74576 1254.36 86.7721C1232.75 161.587 1206 218.685 1172.63 261.298C1109.14 342.349 1026.74 363.643 931.316 388.316C870.065 404.144 800.629 422.108 725.994 458.46C640.257 500.252 561.248 559.761 484.472 640.44C401.37 727.727 332.31 815.363 271.389 892.662C158.508 1035.86 61.0334 1159.54 -77.7922 1223.2L-77.8157 1223.18Z" fill="#A6A6A6"/>
<path d="M-60.5275 1240.77L-61.0215 1239.65C77.169 1171.15 161.636 1049.55 259.463 908.739C321.725 819.09 392.314 717.491 485.413 619.693C563.905 537.225 645.102 477.493 733.685 437.067C810.813 401.858 883.049 386.056 946.793 372.116C1043.21 351.021 1126.45 332.808 1191.58 256.23C1225.93 215.853 1253.56 161.314 1276.1 89.5555C1300.61 11.5108 1319.24 -87.0576 1333.04 -211.74L1334.22 -211.591C1320.41 -86.8091 1301.76 11.8338 1277.23 89.953C1254.65 161.885 1226.91 216.549 1192.48 257.074C1127.11 333.976 1043.66 352.239 947.051 373.359C883.378 387.273 811.213 403.076 734.179 438.234C645.737 478.586 564.658 538.244 486.283 620.587C393.255 718.336 322.713 819.886 260.451 909.484C162.529 1050.44 77.9922 1172.17 -60.4805 1240.8L-60.5275 1240.77Z" fill="#A6A6A6"/>
<path d="M-43.2389 1258.39L-43.7563 1257.27C97.3508 1182.7 172.762 1058.59 260.074 914.9C323.207 810.99 388.48 703.551 487.177 599.864C567.198 515.807 650.465 456.024 741.73 417.139C821.281 383.247 896.292 369.731 962.482 357.804C1060.17 340.187 1144.52 324.981 1211.51 252.452C1246.88 214.163 1275.51 162.009 1298.98 93.0584C1324.6 17.8462 1344.17 -77.2435 1358.87 -197.702L1360.05 -197.553C1345.35 -77.0199 1325.73 18.1693 1300.09 93.4807C1276.54 162.63 1247.85 214.908 1212.35 253.322C1145.08 326.124 1060.54 341.38 962.67 359.021C896.55 370.948 821.586 384.465 742.177 418.307C651.053 457.118 567.927 516.8 488.024 600.759C389.444 704.346 324.195 811.735 261.086 915.596C218.041 986.46 177.372 1053.37 129.74 1112.04C76.3694 1177.76 21.4225 1224.27 -43.1918 1258.41L-43.2389 1258.39Z" fill="#A6A6A6"/>
<path d="M-25.9502 1275.98L-26.4912 1274.88C119.438 1193.54 190.897 1058.29 266.543 915.124C325.794 803.014 387.045 687.053 488.941 579.986C570.397 494.388 655.687 434.681 749.657 397.46C831.607 364.985 909.44 353.828 978.124 343.989C1077.13 329.801 1162.63 317.576 1231.52 249.073C1267.96 212.846 1297.53 163.052 1321.92 96.835C1348.59 24.4306 1369.15 -67.3296 1384.72 -183.688L1385.9 -183.515C1370.3 -67.0563 1349.74 24.8034 1323.02 97.2823C1298.56 163.699 1268.88 213.641 1232.32 249.992C1163.17 318.744 1077.48 331.019 978.265 345.231C909.652 355.046 831.865 366.202 750.057 398.628C656.252 435.799 571.103 495.432 489.765 580.881C387.963 687.823 326.759 803.685 267.555 915.72C191.814 1059.06 120.285 1194.43 -25.9502 1275.95V1275.98Z" fill="#A6A6A6"/>
<path d="M-8.66156 1293.57L-9.22607 1292.48C142.725 1203.8 207.551 1061.92 276.164 911.695C330.64 792.454 386.975 669.138 490.706 560.134C573.55 473.094 660.815 413.536 757.466 378.029C841.839 347.045 922.542 338.373 993.743 330.721C1094.13 319.937 1180.86 310.619 1251.61 246.116C1328.88 175.675 1379.38 43.5628 1410.55 -169.675L1411.7 -169.476C1380.49 44.0598 1329.85 176.42 1252.36 247.06C1181.33 311.812 1094.44 321.154 993.86 331.963C922.707 339.616 842.074 348.263 757.843 379.197C661.356 414.629 574.232 474.113 491.529 561.003C387.916 669.858 331.652 793.075 277.199 912.217C208.492 1062.62 143.595 1204.69 -8.68507 1293.54L-8.66156 1293.57Z" fill="#A6A6A6"/>
<path d="M8.62662 1311.19L8.03857 1310.12C166.858 1213.74 225.497 1064.18 287.571 905.856C336.826 780.254 387.751 650.354 492.47 540.331C576.631 451.925 665.849 392.565 765.205 358.898C851.977 329.479 935.62 323.391 1009.38 317.999C1111.23 310.57 1199.18 304.16 1271.79 243.607C1351.32 177.29 1403.63 50.446 1436.4 -155.586L1437.55 -155.387C1404.74 50.943 1352.28 178.036 1272.5 244.576C1199.6 305.377 1111.47 311.788 1009.43 319.242C935.714 324.609 852.165 330.721 765.534 360.065C666.343 393.684 577.289 452.919 493.269 541.201C388.715 651.05 337.837 780.826 288.63 906.329C226.462 1064.85 167.751 1214.61 8.57958 1311.19H8.62662Z" fill="#A6A6A6"/>
<path d="M25.8918 1328.78L25.2803 1327.71C100.973 1280.18 157.873 1219.1 204.375 1135.54C245.421 1061.77 271.906 982.31 299.968 898.178C343.789 766.787 389.092 630.923 494.234 520.453C579.642 430.73 670.788 371.668 772.873 339.889C862.091 312.135 948.651 308.681 1025.05 305.65C1128.38 301.55 1217.62 297.997 1292.07 241.346C1373.83 179.128 1427.91 57.4523 1462.27 -141.598L1463.43 -141.374C1429.01 57.9989 1374.8 179.948 1292.75 242.364C1218 299.239 1128.59 302.792 1025.07 306.892C948.745 309.923 862.256 313.352 773.202 341.082C671.306 372.787 580.324 431.749 495.057 521.323C390.103 631.594 344.847 767.309 301.073 898.576C272.988 982.758 246.479 1062.29 205.387 1136.16C158.79 1219.92 101.75 1281.12 25.8918 1328.78Z" fill="#A6A6A6"/>
<path d="M43.1799 1346.37L42.5684 1345.3C120.708 1294.71 180.359 1227.45 224.933 1139.64C264.732 1061.25 289.241 973.789 312.928 889.209C351.245 752.501 390.832 611.121 496.021 500.601C582.628 409.611 675.681 350.897 780.494 321.131C872.135 295.091 957.848 294.42 1040.74 293.799C1247.05 292.184 1410.01 290.916 1488.12 -127.533L1489.28 -127.285C1410.97 292.184 1247.59 293.451 1040.74 295.066C957.918 295.712 872.299 296.383 780.799 322.373C676.198 352.09 583.31 410.679 496.844 501.52C391.867 611.816 352.303 753.022 314.033 889.582C290.323 974.211 265.79 1061.75 225.944 1140.26C181.276 1228.27 121.484 1295.71 43.1564 1346.4L43.1799 1346.37Z" fill="#A6A6A6"/>
<path d="M60.4686 1363.99L59.8335 1362.94C141.619 1308.58 202.422 1236.72 245.703 1143.29C284.255 1060.06 305.542 968.123 326.124 879.195C342.542 808.257 359.524 734.884 385.14 667.15C413.836 591.218 450.695 530.268 497.809 480.772C585.569 388.565 680.526 330.274 788.068 302.569C882.178 278.318 970.785 280.356 1056.47 282.344C1162.86 284.804 1254.76 286.916 1332.86 237.942C1419.02 183.924 1476.57 72.2616 1514 -113.495L1515.15 -113.247C1477.66 72.858 1419.93 184.794 1333.47 238.986C1255.07 288.133 1163.03 286.021 1056.45 283.561C970.832 281.598 882.296 279.561 788.35 303.762C681.02 331.417 586.251 389.609 498.632 481.642C451.636 531.013 414.871 591.839 386.222 667.598C360.654 735.256 343.671 808.58 327.253 879.469C306.647 968.446 285.36 1060.45 246.738 1143.82C203.363 1237.47 142.418 1309.47 60.4451 1363.96L60.4686 1363.99Z" fill="#A6A6A6"/>
<path d="M77.7337 1381.58L77.0986 1380.53C268.001 1250.53 304.295 1056.23 339.39 868.337C353.127 794.839 367.31 718.857 390.762 649.533C417.012 571.961 452.6 510.265 499.55 460.919C588.415 367.544 685.254 309.725 795.548 284.157C892.105 261.77 983.675 266.59 1072.21 271.261C1175.68 276.703 1273.42 281.846 1353.34 236.674C1441.67 186.732 1500.92 79.9389 1539.85 -99.457L1541 -99.1837C1502 80.5849 1442.56 187.651 1353.91 237.768C1273.7 283.113 1175.8 277.97 1072.16 272.504C897.374 263.31 699.273 252.875 500.397 461.814C453.565 511.036 418.07 572.582 391.867 649.981C368.439 719.229 354.256 795.162 340.543 868.61C305.401 1056.75 269.06 1251.3 77.7337 1381.6V1381.58Z" fill="#A6A6A6"/>
</g>
</g>
<defs>
<linearGradient id="paint0_linear_344_33" x1="-27.2543" y1="597.753" x2="1587.13" y2="597.753" gradientUnits="userSpaceOnUse">
<stop stop-color="#00DBDE"/>
<stop offset="1" stop-color="#FC00FF"/>
</linearGradient>
<clipPath id="clip0_344_33">
<rect width="1541" height="1195.51" fill="white"/>
</clipPath>
</defs>
</svg>
