<svg width="40" height="40" viewBox="0 0 40 40" fill="none" xmlns="http://www.w3.org/2000/svg">
<path d="M16.2732 6.6665L15.3246 6.78232C15.3246 6.78232 11.0698 7.25525 7.96296 9.79362H7.92501L7.88707 9.83223C7.1898 10.4837 6.88623 11.2848 6.40716 12.4575C5.92808 13.6301 5.41581 15.1261 4.96519 16.7814C4.06397 20.0967 3.3335 24.1118 3.3335 27.7842V28.0931L3.48528 28.4019C4.60944 30.4094 6.60638 31.6883 8.45626 32.5714C10.3062 33.4545 11.9046 33.9226 13.0098 33.9612L13.7308 33.9998L14.1103 33.3435L15.4384 30.9499C16.8472 31.2733 18.4694 31.4904 20.3335 31.4904C22.1976 31.4904 23.8198 31.2733 25.2286 30.9499L26.5567 33.3435L26.9362 33.9998L27.6572 33.9612C28.7623 33.9226 30.3608 33.4545 32.2107 32.5714C34.0606 31.6883 36.0575 30.4094 37.1817 28.4019L37.3335 28.0931V27.7842C37.3335 24.1118 36.603 20.0967 35.7018 16.7814C35.2512 15.1261 34.7389 13.6301 34.2598 12.4575C33.7808 11.2848 33.4772 10.4837 32.7799 9.83223L32.742 9.79362H32.704C29.5972 7.25525 25.3424 6.78232 25.3424 6.78232L24.3938 6.6665L24.0522 7.55445C24.0522 7.55445 23.7012 8.45688 23.483 9.48477C22.1075 9.29657 20.9833 9.25313 20.3335 9.25313C19.6837 9.25313 18.5595 9.29657 17.1839 9.48477C16.9658 8.45688 16.6147 7.55445 16.6147 7.55445L16.2732 6.6665ZM14.6036 9.48477C14.6558 9.6585 14.7079 9.8081 14.7554 9.94805C13.1853 10.3438 11.511 10.947 9.97412 11.917L11.2643 14.0017C14.4139 12.0135 18.939 11.7239 20.3335 11.7239C21.728 11.7239 26.2531 12.0135 29.4027 14.0017L30.6929 11.917C29.156 10.947 27.4817 10.3438 25.9116 9.94805C25.9591 9.8081 26.0112 9.6585 26.0634 9.48477C27.1971 9.71641 29.36 10.2472 31.1482 11.6853C31.1387 11.6902 31.6036 12.4044 32.021 13.4226C32.4479 14.4698 32.9222 15.8645 33.3491 17.4377C34.1697 20.4538 34.8148 24.1263 34.867 27.3595C34.1033 28.5467 32.6851 29.618 31.1862 30.3322C29.877 30.9548 28.843 31.1816 28.2264 31.2974L27.6192 30.255C27.9797 30.1199 28.3354 29.9703 28.6438 29.8303C30.5126 28.9955 31.5277 28.0931 31.5277 28.0931L29.9339 26.24C29.9339 26.24 29.2509 26.877 27.6572 27.5912C26.0634 28.3054 23.6301 29.0196 20.3335 29.0196C17.0369 29.0196 14.6036 28.3054 13.0098 27.5912C11.4161 26.877 10.733 26.24 10.733 26.24L9.1393 28.0931C9.1393 28.0931 10.1544 28.9955 12.0232 29.8303C12.3315 29.9703 12.6873 30.1199 13.0478 30.255L12.4406 31.2974C11.824 31.1816 10.79 30.9548 9.48082 30.3322C7.98193 29.618 6.56369 28.5467 5.80001 27.3595C5.85219 24.1263 6.49728 20.4538 7.31787 17.4377C7.74477 15.8645 8.2191 14.4698 8.646 13.4226C9.06341 12.4044 9.52825 11.6902 9.51876 11.6853C11.307 10.2472 13.4699 9.71641 14.6036 9.48477ZM16.0835 17.901C15.1443 17.901 14.3142 18.4463 13.8067 19.1364C13.2992 19.8265 13.0478 20.6758 13.0478 21.6072C13.0478 22.5386 13.2992 23.3879 13.8067 24.078C14.3142 24.7681 15.1443 25.3134 16.0835 25.3134C17.0227 25.3134 17.8527 24.7681 18.3603 24.078C18.8678 23.3879 19.1192 22.5386 19.1192 21.6072C19.1192 20.6758 18.8678 19.8265 18.3603 19.1364C17.8527 18.4463 17.0227 17.901 16.0835 17.901ZM24.5835 17.901C23.6443 17.901 22.8142 18.4463 22.3067 19.1364C21.7992 19.8265 21.5478 20.6758 21.5478 21.6072C21.5478 22.5386 21.7992 23.3879 22.3067 24.078C22.8142 24.7681 23.6443 25.3134 24.5835 25.3134C25.5227 25.3134 26.3527 24.7681 26.8603 24.078C27.3678 23.3879 27.6192 22.5386 27.6192 21.6072C27.6192 20.6758 27.3678 19.8265 26.8603 19.1364C26.3527 18.4463 25.5227 17.901 24.5835 17.901ZM16.0835 20.3718C16.1499 20.3718 16.2353 20.3959 16.3871 20.6034C16.5389 20.8109 16.6906 21.1729 16.6906 21.6072C16.6906 22.0415 16.5389 22.4034 16.3871 22.6109C16.2353 22.8185 16.1499 22.8426 16.0835 22.8426C16.0171 22.8426 15.9317 22.8185 15.7799 22.6109C15.6281 22.4034 15.4764 22.0415 15.4764 21.6072C15.4764 21.1729 15.6281 20.8109 15.7799 20.6034C15.9317 20.3959 16.0171 20.3718 16.0835 20.3718ZM24.5835 20.3718C24.6499 20.3718 24.7353 20.3959 24.8871 20.6034C25.0389 20.8109 25.1906 21.1729 25.1906 21.6072C25.1906 22.0415 25.0389 22.4034 24.8871 22.6109C24.7353 22.8185 24.6499 22.8426 24.5835 22.8426C24.5171 22.8426 24.4317 22.8185 24.2799 22.6109C24.1281 22.4034 23.9764 22.0415 23.9764 21.6072C23.9764 21.1729 24.1281 20.8109 24.2799 20.6034C24.4317 20.3959 24.5171 20.3718 24.5835 20.3718Z" fill="white"/>
</svg>
