<svg width="40" height="40" viewBox="0 0 40 40" fill="none" xmlns="http://www.w3.org/2000/svg">
<path d="M25.5177 29.3516C25.5177 29.4818 25.6722 29.5859 25.8671 29.5859C26.0889 29.6055 26.2434 29.5013 26.2434 29.3516C26.2434 29.2213 26.0889 29.1172 25.894 29.1172C25.6923 29.0977 25.5177 29.2018 25.5177 29.3516ZM27.6077 29.0586C27.6547 29.1888 27.5203 29.3385 27.3187 29.3776C27.144 29.4427 26.9423 29.3776 26.9021 29.2474C26.8617 29.1172 26.9894 28.9674 27.191 28.9088C27.3657 28.8633 27.5607 28.9284 27.6077 29.0586ZM24.6372 28.9479C24.8322 28.9935 24.9666 29.1172 24.9464 29.2669C24.9262 29.3972 24.7515 29.4818 24.5499 29.4362C24.355 29.3907 24.2206 29.2669 24.2407 29.1368C24.2609 29.013 24.4423 28.9284 24.6372 28.9479ZM20.2152 4C29.5364 4 36.6668 10.8555 36.6668 19.8854C36.6668 27.1055 31.976 33.2838 25.2757 35.4583C24.4155 35.6081 24.1131 35.0938 24.1131 34.6706C24.1131 34.2669 24.1332 32.0403 24.1332 30.6732C24.1332 30.6732 28.8375 31.6498 29.8254 28.7331C29.8254 28.7331 30.5916 26.8385 31.6937 26.3503C31.6937 26.3503 33.2327 25.3282 31.5862 25.3477C31.5862 25.3477 29.9128 25.4778 28.9921 27.0273C27.5203 29.5403 25.0539 28.8177 24.0929 28.388C23.9383 27.3463 23.5015 26.6237 23.0177 26.194C26.7743 25.7903 30.5647 25.263 30.5647 19C30.5647 17.2097 30.0539 16.3112 28.9787 15.1653C29.1534 14.7422 29.7247 12.9974 28.8039 10.7448C27.3993 10.3216 24.1668 12.5026 24.1668 12.5026C22.8227 12.138 21.3778 11.9493 19.9464 11.9493C18.5149 11.9493 17.0701 12.138 15.726 12.5026C15.726 12.5026 12.4934 10.3151 11.0889 10.7448C10.1682 13.0039 10.7394 14.7422 10.9141 15.1653C9.83887 16.3177 9.18027 17.2162 9.18027 19C9.18027 25.2826 13.1386 25.7838 16.8953 26.194C16.2771 26.7083 15.7528 27.6849 15.7528 29.2148C15.7528 31.4088 15.773 34.1237 15.773 34.6576C15.773 35.0808 15.4639 35.5951 14.6104 35.4453C7.88995 33.2838 3.3335 27.1055 3.3335 19.8854C3.3335 10.8555 10.894 4 20.2152 4ZM30.1346 26.4544C30.2219 26.5195 30.2017 26.6693 30.0875 26.793C29.98 26.8972 29.8254 26.9427 29.7381 26.8581C29.6507 26.793 29.6708 26.6433 29.7851 26.5195C29.8927 26.4153 30.0472 26.3698 30.1346 26.4544ZM30.8604 25.9271C30.9074 26.0118 30.8402 26.1159 30.7058 26.181C30.5982 26.2461 30.4639 26.2266 30.4168 26.1354C30.3697 26.0508 30.437 25.9466 30.5714 25.8815C30.7058 25.8424 30.8133 25.862 30.8604 25.9271ZM28.683 28.2448C28.7905 28.3294 28.7502 28.5248 28.5956 28.6484C28.441 28.7982 28.2462 28.8177 28.1587 28.7135C28.0714 28.6289 28.1117 28.4336 28.2462 28.3099C28.394 28.1602 28.5956 28.1407 28.683 28.2448ZM29.4491 27.2878C29.5566 27.3528 29.5566 27.5222 29.4491 27.6718C29.3416 27.8216 29.1601 27.8868 29.0727 27.8216C28.9652 27.737 28.9652 27.5677 29.0727 27.418C29.1668 27.2683 29.3416 27.2032 29.4491 27.2878Z" fill="white"/>
</svg>
