<svg width="40" height="40" viewBox="0 0 40 40" fill="none" xmlns="http://www.w3.org/2000/svg">
<path fill-rule="evenodd" clip-rule="evenodd" d="M20.0002 3.33325C10.796 3.33325 3.3335 10.7958 3.3335 19.9999C3.3335 29.2041 10.796 36.6666 20.0002 36.6666C29.2043 36.6666 36.6668 29.2041 36.6668 19.9999C36.6668 10.7958 29.2043 3.33325 20.0002 3.33325ZM20.0002 6.11103C27.6585 6.11103 33.8891 12.3416 33.8891 19.9999C33.8891 27.6583 27.6585 33.8888 20.0002 33.8888C12.3418 33.8888 6.11127 27.6583 6.11127 19.9999C6.11127 12.3416 12.3418 6.11103 20.0002 6.11103ZM16.6307 26.5846H11.6668V26.3041L13.4182 24.1805C13.6043 23.9874 13.6891 23.7152 13.6432 23.4499V16.0833C13.6641 15.8791 13.5863 15.6763 13.4335 15.5388L11.8766 13.6638V13.3846H16.7085L20.4432 21.5749L23.7266 13.3846H28.3335V13.6638L27.0029 14.9402C26.8877 15.0277 26.8307 15.1708 26.8557 15.3138V24.686C26.8307 24.8291 26.8877 24.9721 27.0029 25.0596L28.3029 26.336V26.6152H21.7668V26.336L23.1127 25.0291C23.2446 24.8971 23.2446 24.8583 23.2446 24.6555V17.0791L19.5016 26.5846H18.996L14.6391 17.0791V23.4499C14.6029 23.718 14.6918 23.9874 14.8807 24.1805L16.6307 26.3041V26.5846Z" fill="white"/>
</svg>
