<svg width="60" height="60" viewBox="0 0 60 60" fill="none" xmlns="http://www.w3.org/2000/svg">
<path fill-rule="evenodd" clip-rule="evenodd" d="M31.3317 47.165C35.7667 46.7167 39.4317 45.77 42.1283 42.8933C42.8217 44.45 44.1433 45.3883 45.6317 46.38C46.4067 46.8967 47.2217 47.2067 48.02 47.3267C43.4717 52.0567 37.08 55 30 55C16.1933 55 5 43.8067 5 30C5 16.1933 16.1933 5 30 5C43.8067 5 55 16.1933 55.0017 29.9983C55.0017 34.2383 53.9433 38.2333 52.08 41.7317C51.1 41.12 49.5133 41.0283 48.0333 41.375C47.1654 41.5791 46.3764 40.5332 45.8202 39.7959C45.7452 39.6965 45.6745 39.6027 45.6083 39.5183C45.0317 38.7833 45.1283 38.0417 45.4467 37.1633C46.1283 35.2883 46.395 33.3217 46.1533 30.7517C45.725 26.2017 43.8333 22.195 41.0533 19.26L40.845 14.1033C40.78 13.29 39.9183 12.825 39.2383 13.2367L35.625 15.4233C33.325 14.425 30.795 13.9883 28.185 14.2517C25.1333 14.5617 22.3683 15.7883 20.0817 17.665L16.2367 16.7317C15.495 16.5517 14.795 17.2767 14.975 18.0367L16.0883 22.4133C14.1767 25.7317 13.2283 29.7817 13.6283 34.0417C14.57 44.0617 22.35 48.0733 31.3317 47.165ZM42.155 24.2767L39.82 24.5633V24.5667C39.8501 24.6648 39.879 24.7525 39.9065 24.8361C39.9734 25.0395 40.0326 25.2192 40.0833 25.4683L42.355 25.9L42.305 26.3767L40.1383 25.9067C40.1524 25.9864 40.1657 26.0555 40.1782 26.1204C40.2088 26.2791 40.2344 26.4122 40.2533 26.6133C40.81 32.525 36.1833 34.66 30.285 35.2567C24.3867 35.8533 19.4483 34.6833 18.8933 28.7733C18.8667 28.4917 18.855 28.3417 18.85 28.0633L16.85 28.9983L16.7467 28.4783L18.8467 27.62C18.8517 27.255 18.8767 27.025 18.9167 26.6683L16.6183 26.8517L16.5967 26.43L18.955 26.2417C18.9876 26.0096 19.0282 25.8485 19.076 25.6586C19.0941 25.5866 19.1132 25.5106 19.1333 25.425L16.43 25.1317L16.46 24.5917L19.205 25.0067C20.3233 20.7667 23.9667 17.4533 28.5667 16.9883C33.175 16.5217 37.245 18.9183 39.1283 22.865L41.935 21.8933L42.0183 22.4217L39.38 23.2633C39.5083 23.5517 39.6233 23.8467 39.7267 24.15L42.1217 23.8567L42.155 24.2767Z" fill="white"/>
</svg>
