<svg width="60" height="60" viewBox="0 0 60 60" fill="none" xmlns="http://www.w3.org/2000/svg">
<path fill-rule="evenodd" clip-rule="evenodd" d="M16.8346 52.1687H7.20837C6.81199 52.1687 6.58549 51.7157 6.75537 51.376L33.6523 7.32161C33.8788 6.92523 34.2752 6.69873 34.7282 6.69873H43.8448C44.5243 6.69873 44.9207 7.37823 44.581 7.94448L18.0804 51.4892C17.7973 51.8856 17.3443 52.1687 16.8346 52.1687ZM52.9049 31.3873L40.3907 51.4892C40.1642 51.9422 39.7112 52.1687 39.2582 52.1687H30.0283C29.4055 52.1687 29.0091 51.4892 29.3488 50.9796L42.2027 30.4247C42.3726 30.1416 42.7124 29.9717 43.0521 29.9717H52.1121C52.8483 29.9717 53.3013 30.7644 52.9049 31.3873Z" fill="white"/>
</svg>
