<svg width="137" height="48" viewBox="0 0 137 48" fill="none" xmlns="http://www.w3.org/2000/svg">
  <path
    d="M66.224 23.384C66.832 23.48 67.384 23.728 67.88 24.128C68.392 24.528 68.792 25.024 69.08 25.616C69.384 26.208 69.536 26.84 69.536 27.512C69.536 28.36 69.32 29.128 68.888 29.816C68.456 30.488 67.824 31.024 66.992 31.424C66.176 31.808 65.208 32 64.088 32H57.848V15.272H63.848C64.984 15.272 65.952 15.464 66.752 15.848C67.552 16.216 68.152 16.72 68.552 17.36C68.952 18 69.152 18.72 69.152 19.52C69.152 20.512 68.88 21.336 68.336 21.992C67.808 22.632 67.104 23.096 66.224 23.384ZM60.032 22.496H63.704C64.728 22.496 65.52 22.256 66.08 21.776C66.64 21.296 66.92 20.632 66.92 19.784C66.92 18.936 66.64 18.272 66.08 17.792C65.52 17.312 64.712 17.072 63.656 17.072H60.032V22.496ZM63.896 30.2C64.984 30.2 65.832 29.944 66.44 29.432C67.048 28.92 67.352 28.208 67.352 27.296C67.352 26.368 67.032 25.64 66.392 25.112C65.752 24.568 64.896 24.296 63.824 24.296H60.032V30.2H63.896ZM74.7508 20.984C75.1348 20.232 75.6788 19.648 76.3828 19.232C77.1028 18.816 77.9748 18.608 78.9988 18.608V20.864H78.4228C75.9748 20.864 74.7508 22.192 74.7508 24.848V32H72.5668V18.848H74.7508V20.984ZM87.2559 32.216C86.0239 32.216 84.9039 31.936 83.8959 31.376C82.9039 30.816 82.1199 30.024 81.5439 29C80.9839 27.96 80.7039 26.76 80.7039 25.4C80.7039 24.056 80.9919 22.872 81.5679 21.848C82.1599 20.808 82.9599 20.016 83.9679 19.472C84.9759 18.912 86.1039 18.632 87.3519 18.632C88.5999 18.632 89.7279 18.912 90.7359 19.472C91.7439 20.016 92.5359 20.8 93.1119 21.824C93.7039 22.848 93.9999 24.04 93.9999 25.4C93.9999 26.76 93.6959 27.96 93.0879 29C92.4959 30.024 91.6879 30.816 90.6639 31.376C89.6399 31.936 88.5039 32.216 87.2559 32.216ZM87.2559 30.296C88.0399 30.296 88.7759 30.112 89.4639 29.744C90.1519 29.376 90.7039 28.824 91.1199 28.088C91.5519 27.352 91.7679 26.456 91.7679 25.4C91.7679 24.344 91.5599 23.448 91.1439 22.712C90.7279 21.976 90.1839 21.432 89.5119 21.08C88.8399 20.712 88.1119 20.528 87.3279 20.528C86.5279 20.528 85.7919 20.712 85.1199 21.08C84.4639 21.432 83.9359 21.976 83.5359 22.712C83.1359 23.448 82.9359 24.344 82.9359 25.4C82.9359 26.472 83.1279 27.376 83.5119 28.112C83.9119 28.848 84.4399 29.4 85.0959 29.768C85.7519 30.12 86.4719 30.296 87.2559 30.296ZM103.279 18.608C104.879 18.608 106.175 19.096 107.167 20.072C108.159 21.032 108.655 22.424 108.655 24.248V32H106.495V24.56C106.495 23.248 106.167 22.248 105.511 21.56C104.855 20.856 103.959 20.504 102.823 20.504C101.671 20.504 100.751 20.864 100.063 21.584C99.3914 22.304 99.0554 23.352 99.0554 24.728V32H96.8714V18.848H99.0554V20.72C99.4874 20.048 100.071 19.528 100.807 19.16C101.559 18.792 102.383 18.608 103.279 18.608ZM113.855 30.2H120.311V32H111.359V30.2L117.743 20.624H111.407V18.848H120.263V20.624L113.855 30.2ZM135.145 24.92C135.145 25.336 135.121 25.776 135.073 26.24H124.561C124.641 27.536 125.081 28.552 125.881 29.288C126.697 30.008 127.681 30.368 128.833 30.368C129.777 30.368 130.561 30.152 131.185 29.72C131.825 29.272 132.273 28.68 132.529 27.944H134.881C134.529 29.208 133.825 30.24 132.769 31.04C131.713 31.824 130.401 32.216 128.833 32.216C127.585 32.216 126.465 31.936 125.473 31.376C124.497 30.816 123.729 30.024 123.169 29C122.609 27.96 122.329 26.76 122.329 25.4C122.329 24.04 122.601 22.848 123.145 21.824C123.689 20.8 124.449 20.016 125.425 19.472C126.417 18.912 127.553 18.632 128.833 18.632C130.081 18.632 131.185 18.904 132.145 19.448C133.105 19.992 133.841 20.744 134.353 21.704C134.881 22.648 135.145 23.72 135.145 24.92ZM132.889 24.464C132.889 23.632 132.705 22.92 132.337 22.328C131.969 21.72 131.465 21.264 130.825 20.96C130.201 20.64 129.505 20.48 128.737 20.48C127.633 20.48 126.689 20.832 125.905 21.536C125.137 22.24 124.697 23.216 124.585 24.464H132.889Z"
    fill="#4E3115" />
  <circle cx="24" cy="24" r="24" fill="url(#paint0_linear_1316_673)" />
  <path
    d="M30.532 24.04C31.996 24.352 33.172 25.084 34.06 26.236C34.948 27.364 35.392 28.66 35.392 30.124C35.392 32.236 34.648 33.916 33.16 35.164C31.696 36.388 29.644 37 27.004 37H15.232V11.728H26.608C29.176 11.728 31.18 12.316 32.62 13.492C34.084 14.668 34.816 16.264 34.816 18.28C34.816 19.768 34.42 21.004 33.628 21.988C32.86 22.972 31.828 23.656 30.532 24.04ZM21.388 21.952H25.42C26.428 21.952 27.196 21.736 27.724 21.304C28.276 20.848 28.552 20.188 28.552 19.324C28.552 18.46 28.276 17.8 27.724 17.344C27.196 16.888 26.428 16.66 25.42 16.66H21.388V21.952ZM25.924 32.032C26.956 32.032 27.748 31.804 28.3 31.348C28.876 30.868 29.164 30.184 29.164 29.296C29.164 28.408 28.864 27.712 28.264 27.208C27.688 26.704 26.884 26.452 25.852 26.452H21.388V32.032H25.924Z"
    fill="#4E3115" />
  <defs>
    <linearGradient id="paint0_linear_1316_673" x1="0" y1="24" x2="48" y2="24"
      gradientUnits="userSpaceOnUse">
      <stop stop-color="#CD8237" />
      <stop offset="1" stop-color="#8D5A26" />
    </linearGradient>
  </defs>
</svg>
