<svg width="199" height="48" viewBox="0 0 199 48" fill="none" xmlns="http://www.w3.org/2000/svg">
  <path
    d="M57.032 23.624C57.032 21.992 57.4 20.528 58.136 19.232C58.872 17.92 59.872 16.896 61.136 16.16C62.416 15.424 63.832 15.056 65.384 15.056C67.208 15.056 68.8 15.496 70.16 16.376C71.52 17.256 72.512 18.504 73.136 20.12H70.52C70.056 19.112 69.384 18.336 68.504 17.792C67.64 17.248 66.6 16.976 65.384 16.976C64.216 16.976 63.168 17.248 62.24 17.792C61.312 18.336 60.584 19.112 60.056 20.12C59.528 21.112 59.264 22.28 59.264 23.624C59.264 24.952 59.528 26.12 60.056 27.128C60.584 28.12 61.312 28.888 62.24 29.432C63.168 29.976 64.216 30.248 65.384 30.248C66.6 30.248 67.64 29.984 68.504 29.456C69.384 28.912 70.056 28.136 70.52 27.128H73.136C72.512 28.728 71.52 29.968 70.16 30.848C68.8 31.712 67.208 32.144 65.384 32.144C63.832 32.144 62.416 31.784 61.136 31.064C59.872 30.328 58.872 29.312 58.136 28.016C57.4 26.72 57.032 25.256 57.032 23.624ZM82.1231 32.216C80.8911 32.216 79.7711 31.936 78.7631 31.376C77.7711 30.816 76.9871 30.024 76.4111 29C75.8511 27.96 75.5711 26.76 75.5711 25.4C75.5711 24.056 75.8591 22.872 76.4351 21.848C77.0271 20.808 77.8271 20.016 78.8351 19.472C79.8431 18.912 80.9711 18.632 82.2191 18.632C83.4671 18.632 84.5951 18.912 85.6031 19.472C86.6111 20.016 87.4031 20.8 87.9791 21.824C88.5711 22.848 88.8671 24.04 88.8671 25.4C88.8671 26.76 88.5631 27.96 87.9551 29C87.3631 30.024 86.5551 30.816 85.5311 31.376C84.5071 31.936 83.3711 32.216 82.1231 32.216ZM82.1231 30.296C82.9071 30.296 83.6431 30.112 84.3311 29.744C85.0191 29.376 85.5711 28.824 85.9871 28.088C86.4191 27.352 86.6351 26.456 86.6351 25.4C86.6351 24.344 86.4271 23.448 86.0111 22.712C85.5951 21.976 85.0511 21.432 84.3791 21.08C83.7071 20.712 82.9791 20.528 82.1951 20.528C81.3951 20.528 80.6591 20.712 79.9871 21.08C79.3311 21.432 78.8031 21.976 78.4031 22.712C78.0031 23.448 77.8031 24.344 77.8031 25.4C77.8031 26.472 77.9951 27.376 78.3791 28.112C78.7791 28.848 79.3071 29.4 79.9631 29.768C80.6191 30.12 81.3391 30.296 82.1231 30.296ZM107.555 18.608C108.579 18.608 109.491 18.824 110.291 19.256C111.091 19.672 111.723 20.304 112.187 21.152C112.651 22 112.883 23.032 112.883 24.248V32H110.723V24.56C110.723 23.248 110.395 22.248 109.739 21.56C109.099 20.856 108.227 20.504 107.123 20.504C105.987 20.504 105.083 20.872 104.411 21.608C103.739 22.328 103.403 23.376 103.403 24.752V32H101.243V24.56C101.243 23.248 100.915 22.248 100.259 21.56C99.6186 20.856 98.7466 20.504 97.6426 20.504C96.5066 20.504 95.6026 20.872 94.9306 21.608C94.2586 22.328 93.9226 23.376 93.9226 24.752V32H91.7386V18.848H93.9226V20.744C94.3546 20.056 94.9306 19.528 95.6506 19.16C96.3866 18.792 97.1946 18.608 98.0746 18.608C99.1786 18.608 100.155 18.856 101.003 19.352C101.851 19.848 102.483 20.576 102.899 21.536C103.267 20.608 103.875 19.888 104.723 19.376C105.571 18.864 106.515 18.608 107.555 18.608ZM132.281 18.608C133.305 18.608 134.217 18.824 135.017 19.256C135.817 19.672 136.449 20.304 136.913 21.152C137.377 22 137.609 23.032 137.609 24.248V32H135.449V24.56C135.449 23.248 135.121 22.248 134.465 21.56C133.825 20.856 132.953 20.504 131.849 20.504C130.713 20.504 129.809 20.872 129.137 21.608C128.465 22.328 128.129 23.376 128.129 24.752V32H125.969V24.56C125.969 23.248 125.641 22.248 124.985 21.56C124.345 20.856 123.473 20.504 122.369 20.504C121.233 20.504 120.329 20.872 119.657 21.608C118.985 22.328 118.649 23.376 118.649 24.752V32H116.465V18.848H118.649V20.744C119.081 20.056 119.657 19.528 120.377 19.16C121.113 18.792 121.921 18.608 122.801 18.608C123.905 18.608 124.881 18.856 125.729 19.352C126.577 19.848 127.209 20.576 127.625 21.536C127.993 20.608 128.601 19.888 129.449 19.376C130.297 18.864 131.241 18.608 132.281 18.608ZM152.856 18.848V32H150.672V30.056C150.256 30.728 149.672 31.256 148.92 31.64C148.184 32.008 147.368 32.192 146.472 32.192C145.448 32.192 144.528 31.984 143.712 31.568C142.896 31.136 142.248 30.496 141.768 29.648C141.304 28.8 141.072 27.768 141.072 26.552V18.848H143.232V26.264C143.232 27.56 143.56 28.56 144.216 29.264C144.872 29.952 145.768 30.296 146.904 30.296C148.072 30.296 148.992 29.936 149.664 29.216C150.336 28.496 150.672 27.448 150.672 26.072V18.848H152.856ZM162.951 18.608C164.551 18.608 165.847 19.096 166.839 20.072C167.831 21.032 168.327 22.424 168.327 24.248V32H166.167V24.56C166.167 23.248 165.839 22.248 165.183 21.56C164.527 20.856 163.631 20.504 162.495 20.504C161.343 20.504 160.423 20.864 159.735 21.584C159.063 22.304 158.727 23.352 158.727 24.728V32H156.543V18.848H158.727V20.72C159.159 20.048 159.743 19.528 160.479 19.16C161.231 18.792 162.055 18.608 162.951 18.608ZM173.023 16.712C172.607 16.712 172.255 16.568 171.967 16.28C171.679 15.992 171.535 15.64 171.535 15.224C171.535 14.808 171.679 14.456 171.967 14.168C172.255 13.88 172.607 13.736 173.023 13.736C173.423 13.736 173.759 13.88 174.031 14.168C174.319 14.456 174.463 14.808 174.463 15.224C174.463 15.64 174.319 15.992 174.031 16.28C173.759 16.568 173.423 16.712 173.023 16.712ZM174.079 18.848V32H171.895V18.848H174.079ZM180.465 20.648V28.4C180.465 29.04 180.601 29.496 180.873 29.768C181.145 30.024 181.617 30.152 182.289 30.152H183.897V32H181.929C180.713 32 179.801 31.72 179.193 31.16C178.585 30.6 178.281 29.68 178.281 28.4V20.648H176.577V18.848H178.281V15.536H180.465V18.848H183.897V20.648H180.465ZM197.871 18.848L189.951 38.192H187.695L190.287 31.856L184.983 18.848H187.407L191.535 29.504L195.615 18.848H197.871Z"
    fill="#4E3115" />
  <circle cx="24" cy="24" r="24" fill="url(#paint0_linear_2419_4066)" />
  <path
    d="M12.188 24.328C12.188 21.832 12.728 19.612 13.808 17.668C14.888 15.7 16.388 14.176 18.308 13.096C20.252 11.992 22.448 11.44 24.896 11.44C27.896 11.44 30.464 12.232 32.6 13.816C34.736 15.4 36.164 17.56 36.884 20.296H30.116C29.612 19.24 28.892 18.436 27.956 17.884C27.044 17.332 26 17.056 24.824 17.056C22.928 17.056 21.392 17.716 20.216 19.036C19.04 20.356 18.452 22.12 18.452 24.328C18.452 26.536 19.04 28.3 20.216 29.62C21.392 30.94 22.928 31.6 24.824 31.6C26 31.6 27.044 31.324 27.956 30.772C28.892 30.22 29.612 29.416 30.116 28.36H36.884C36.164 31.096 34.736 33.256 32.6 34.84C30.464 36.4 27.896 37.18 24.896 37.18C22.448 37.18 20.252 36.64 18.308 35.56C16.388 34.456 14.888 32.932 13.808 30.988C12.728 29.044 12.188 26.824 12.188 24.328Z"
    fill="#066442" />
  <defs>
    <linearGradient id="paint0_linear_2419_4066" x1="0" y1="24" x2="48" y2="24"
      gradientUnits="userSpaceOnUse">
      <stop stop-color="#7AEFB0" />
      <stop offset="1" stop-color="#40C9AD" />
    </linearGradient>
  </defs>
</svg>
