<svg width="113" height="48" viewBox="0 0 113 48" fill="none" xmlns="http://www.w3.org/2000/svg">
  <path
    d="M70.52 20.12C70.056 19.144 69.384 18.392 68.504 17.864C67.624 17.32 66.6 17.048 65.432 17.048C64.264 17.048 63.208 17.32 62.264 17.864C61.336 18.392 60.6 19.16 60.056 20.168C59.528 21.16 59.264 22.312 59.264 23.624C59.264 24.936 59.528 26.088 60.056 27.08C60.6 28.072 61.336 28.84 62.264 29.384C63.208 29.912 64.264 30.176 65.432 30.176C67.064 30.176 68.408 29.688 69.464 28.712C70.52 27.736 71.136 26.416 71.312 24.752H64.64V22.976H73.64V24.656C73.512 26.032 73.08 27.296 72.344 28.448C71.608 29.584 70.64 30.488 69.44 31.16C68.24 31.816 66.904 32.144 65.432 32.144C63.88 32.144 62.464 31.784 61.184 31.064C59.904 30.328 58.888 29.312 58.136 28.016C57.4 26.72 57.032 25.256 57.032 23.624C57.032 21.992 57.4 20.528 58.136 19.232C58.888 17.92 59.904 16.904 61.184 16.184C62.464 15.448 63.88 15.08 65.432 15.08C67.208 15.08 68.776 15.52 70.136 16.4C71.512 17.28 72.512 18.52 73.136 20.12H70.52ZM82.2637 32.216C81.0317 32.216 79.9117 31.936 78.9037 31.376C77.9117 30.816 77.1277 30.024 76.5517 29C75.9917 27.96 75.7117 26.76 75.7117 25.4C75.7117 24.056 75.9997 22.872 76.5757 21.848C77.1677 20.808 77.9677 20.016 78.9757 19.472C79.9837 18.912 81.1117 18.632 82.3597 18.632C83.6077 18.632 84.7357 18.912 85.7437 19.472C86.7517 20.016 87.5437 20.8 88.1197 21.824C88.7117 22.848 89.0077 24.04 89.0077 25.4C89.0077 26.76 88.7037 27.96 88.0957 29C87.5037 30.024 86.6957 30.816 85.6717 31.376C84.6477 31.936 83.5117 32.216 82.2637 32.216ZM82.2637 30.296C83.0477 30.296 83.7837 30.112 84.4717 29.744C85.1597 29.376 85.7117 28.824 86.1277 28.088C86.5597 27.352 86.7757 26.456 86.7757 25.4C86.7757 24.344 86.5677 23.448 86.1517 22.712C85.7357 21.976 85.1917 21.432 84.5197 21.08C83.8477 20.712 83.1197 20.528 82.3357 20.528C81.5357 20.528 80.7997 20.712 80.1277 21.08C79.4717 21.432 78.9437 21.976 78.5437 22.712C78.1437 23.448 77.9437 24.344 77.9437 25.4C77.9437 26.472 78.1357 27.376 78.5197 28.112C78.9197 28.848 79.4477 29.4 80.1037 29.768C80.7597 30.12 81.4797 30.296 82.2637 30.296ZM94.0633 14.24V32H91.8793V14.24H94.0633ZM96.9695 25.376C96.9695 24.032 97.2415 22.856 97.7855 21.848C98.3295 20.824 99.0735 20.032 100.018 19.472C100.978 18.912 102.05 18.632 103.234 18.632C104.258 18.632 105.21 18.872 106.09 19.352C106.97 19.816 107.642 20.432 108.106 21.2V14.24H110.314V32H108.106V29.528C107.674 30.312 107.034 30.96 106.186 31.472C105.338 31.968 104.346 32.216 103.21 32.216C102.042 32.216 100.978 31.928 100.018 31.352C99.0735 30.776 98.3295 29.968 97.7855 28.928C97.2415 27.888 96.9695 26.704 96.9695 25.376ZM108.106 25.4C108.106 24.408 107.906 23.544 107.506 22.808C107.106 22.072 106.562 21.512 105.874 21.128C105.202 20.728 104.458 20.528 103.642 20.528C102.826 20.528 102.082 20.72 101.41 21.104C100.738 21.488 100.202 22.048 99.8015 22.784C99.4015 23.52 99.2015 24.384 99.2015 25.376C99.2015 26.384 99.4015 27.264 99.8015 28.016C100.202 28.752 100.738 29.32 101.41 29.72C102.082 30.104 102.826 30.296 103.642 30.296C104.458 30.296 105.202 30.104 105.874 29.72C106.562 29.32 107.106 28.752 107.506 28.016C107.906 27.264 108.106 26.392 108.106 25.4Z"
    fill="#6E1E1E" />
  <circle cx="24" cy="24" r="24" fill="url(#paint0_linear_1080_543)" />
  <path
    d="M30.008 19.72C29.552 18.88 28.892 18.244 28.028 17.812C27.188 17.356 26.192 17.128 25.04 17.128C23.048 17.128 21.452 17.788 20.252 19.108C19.052 20.404 18.452 22.144 18.452 24.328C18.452 26.656 19.076 28.48 20.324 29.8C21.596 31.096 23.336 31.744 25.544 31.744C27.056 31.744 28.328 31.36 29.36 30.592C30.416 29.824 31.184 28.72 31.664 27.28H23.852V22.744H37.244V28.468C36.788 30.004 36.008 31.432 34.904 32.752C33.824 34.072 32.444 35.14 30.764 35.956C29.084 36.772 27.188 37.18 25.076 37.18C22.58 37.18 20.348 36.64 18.38 35.56C16.436 34.456 14.912 32.932 13.808 30.988C12.728 29.044 12.188 26.824 12.188 24.328C12.188 21.832 12.728 19.612 13.808 17.668C14.912 15.7 16.436 14.176 18.38 13.096C20.324 11.992 22.544 11.44 25.04 11.44C28.064 11.44 30.608 12.172 32.672 13.636C34.76 15.1 36.14 17.128 36.812 19.72H30.008Z"
    fill="#6E1E1E" />
  <defs>
    <linearGradient id="paint0_linear_1080_543" x1="0" y1="24" x2="48" y2="24"
      gradientUnits="userSpaceOnUse">
      <stop stop-color="#FFF200" />
      <stop offset="1" stop-color="#E19651" />
    </linearGradient>
  </defs>
</svg>
