<svg width="163" height="48" viewBox="0 0 163 48" fill="none" xmlns="http://www.w3.org/2000/svg">
  <path
    d="M69.032 20.168C69.032 21.56 68.552 22.72 67.592 23.648C66.648 24.56 65.2 25.016 63.248 25.016H60.032V32H57.848V15.272H63.248C65.136 15.272 66.568 15.728 67.544 16.64C68.536 17.552 69.032 18.728 69.032 20.168ZM63.248 23.216C64.464 23.216 65.36 22.952 65.936 22.424C66.512 21.896 66.8 21.144 66.8 20.168C66.8 18.104 65.616 17.072 63.248 17.072H60.032V23.216H63.248ZM73.9304 14.24V32H71.7464V14.24H73.9304ZM76.8367 25.376C76.8367 24.032 77.1087 22.856 77.6527 21.848C78.1967 20.824 78.9407 20.032 79.8847 19.472C80.8447 18.912 81.9087 18.632 83.0767 18.632C84.2287 18.632 85.2287 18.88 86.0767 19.376C86.9247 19.872 87.5567 20.496 87.9727 21.248V18.848H90.1807V32H87.9727V29.552C87.5407 30.32 86.8927 30.96 86.0287 31.472C85.1807 31.968 84.1887 32.216 83.0527 32.216C81.8847 32.216 80.8287 31.928 79.8847 31.352C78.9407 30.776 78.1967 29.968 77.6527 28.928C77.1087 27.888 76.8367 26.704 76.8367 25.376ZM87.9727 25.4C87.9727 24.408 87.7727 23.544 87.3727 22.808C86.9727 22.072 86.4287 21.512 85.7407 21.128C85.0687 20.728 84.3247 20.528 83.5087 20.528C82.6927 20.528 81.9487 20.72 81.2767 21.104C80.6047 21.488 80.0687 22.048 79.6687 22.784C79.2687 23.52 79.0687 24.384 79.0687 25.376C79.0687 26.384 79.2687 27.264 79.6687 28.016C80.0687 28.752 80.6047 29.32 81.2767 29.72C81.9487 30.104 82.6927 30.296 83.5087 30.296C84.3247 30.296 85.0687 30.104 85.7407 29.72C86.4287 29.32 86.9727 28.752 87.3727 28.016C87.7727 27.264 87.9727 26.392 87.9727 25.4ZM96.5354 20.648V28.4C96.5354 29.04 96.6714 29.496 96.9434 29.768C97.2154 30.024 97.6874 30.152 98.3594 30.152H99.9674V32H97.9994C96.7834 32 95.8714 31.72 95.2634 31.16C94.6554 30.6 94.3514 29.68 94.3514 28.4V20.648H92.6474V18.848H94.3514V15.536H96.5354V18.848H99.9674V20.648H96.5354ZM103.742 16.712C103.326 16.712 102.974 16.568 102.686 16.28C102.398 15.992 102.254 15.64 102.254 15.224C102.254 14.808 102.398 14.456 102.686 14.168C102.974 13.88 103.326 13.736 103.742 13.736C104.142 13.736 104.478 13.88 104.75 14.168C105.038 14.456 105.182 14.808 105.182 15.224C105.182 15.64 105.038 15.992 104.75 16.28C104.478 16.568 104.142 16.712 103.742 16.712ZM104.798 18.848V32H102.614V18.848H104.798ZM114.928 18.608C116.528 18.608 117.824 19.096 118.816 20.072C119.808 21.032 120.304 22.424 120.304 24.248V32H118.144V24.56C118.144 23.248 117.816 22.248 117.16 21.56C116.504 20.856 115.608 20.504 114.472 20.504C113.32 20.504 112.4 20.864 111.712 21.584C111.04 22.304 110.704 23.352 110.704 24.728V32H108.52V18.848H110.704V20.72C111.136 20.048 111.72 19.528 112.456 19.16C113.208 18.792 114.032 18.608 114.928 18.608ZM135.535 18.848V32H133.351V30.056C132.935 30.728 132.351 31.256 131.599 31.64C130.863 32.008 130.047 32.192 129.151 32.192C128.127 32.192 127.207 31.984 126.391 31.568C125.575 31.136 124.927 30.496 124.447 29.648C123.983 28.8 123.751 27.768 123.751 26.552V18.848H125.911V26.264C125.911 27.56 126.239 28.56 126.895 29.264C127.551 29.952 128.447 30.296 129.583 30.296C130.751 30.296 131.671 29.936 132.343 29.216C133.015 28.496 133.351 27.448 133.351 26.072V18.848H135.535ZM155.039 18.608C156.063 18.608 156.975 18.824 157.775 19.256C158.575 19.672 159.207 20.304 159.671 21.152C160.135 22 160.367 23.032 160.367 24.248V32H158.207V24.56C158.207 23.248 157.879 22.248 157.223 21.56C156.583 20.856 155.711 20.504 154.607 20.504C153.471 20.504 152.567 20.872 151.895 21.608C151.223 22.328 150.887 23.376 150.887 24.752V32H148.727V24.56C148.727 23.248 148.399 22.248 147.743 21.56C147.103 20.856 146.231 20.504 145.127 20.504C143.991 20.504 143.087 20.872 142.415 21.608C141.743 22.328 141.407 23.376 141.407 24.752V32H139.223V18.848H141.407V20.744C141.839 20.056 142.415 19.528 143.135 19.16C143.871 18.792 144.679 18.608 145.559 18.608C146.663 18.608 147.639 18.856 148.487 19.352C149.335 19.848 149.967 20.576 150.383 21.536C150.751 20.608 151.359 19.888 152.207 19.376C153.055 18.864 153.999 18.608 155.039 18.608Z"
    fill="#1E3C6E" />
  <circle cx="24" cy="24" r="24" fill="url(#paint0_linear_1080_505)" />
  <path
    d="M35.492 19.864C35.492 21.328 35.156 22.672 34.484 23.896C33.812 25.096 32.78 26.068 31.388 26.812C29.996 27.556 28.268 27.928 26.204 27.928H22.388V37H16.232V11.728H26.204C28.22 11.728 29.924 12.076 31.316 12.772C32.708 13.468 33.752 14.428 34.448 15.652C35.144 16.876 35.492 18.28 35.492 19.864ZM25.736 23.032C26.912 23.032 27.788 22.756 28.364 22.204C28.94 21.652 29.228 20.872 29.228 19.864C29.228 18.856 28.94 18.076 28.364 17.524C27.788 16.972 26.912 16.696 25.736 16.696H22.388V23.032H25.736Z"
    fill="#1E3C6E" />
  <defs>
    <linearGradient id="paint0_linear_1080_505" x1="0" y1="24" x2="48" y2="24"
      gradientUnits="userSpaceOnUse">
      <stop stop-color="#E1ECFF" />
      <stop offset="1" stop-color="#8AB1E7" />
    </linearGradient>
  </defs>
</svg>
