<svg width="120" height="48" viewBox="0 0 120 48" fill="none" xmlns="http://www.w3.org/2000/svg">
  <path
    d="M63.152 32.168C62.048 32.168 61.056 31.976 60.176 31.592C59.312 31.192 58.632 30.648 58.136 29.96C57.64 29.256 57.384 28.448 57.368 27.536H59.696C59.776 28.32 60.096 28.984 60.656 29.528C61.232 30.056 62.064 30.32 63.152 30.32C64.192 30.32 65.008 30.064 65.6 29.552C66.208 29.024 66.512 28.352 66.512 27.536C66.512 26.896 66.336 26.376 65.984 25.976C65.632 25.576 65.192 25.272 64.664 25.064C64.136 24.856 63.424 24.632 62.528 24.392C61.424 24.104 60.536 23.816 59.864 23.528C59.208 23.24 58.64 22.792 58.16 22.184C57.696 21.56 57.464 20.728 57.464 19.688C57.464 18.776 57.696 17.968 58.16 17.264C58.624 16.56 59.272 16.016 60.104 15.632C60.952 15.248 61.92 15.056 63.008 15.056C64.576 15.056 65.856 15.448 66.848 16.232C67.856 17.016 68.424 18.056 68.552 19.352H66.152C66.072 18.712 65.736 18.152 65.144 17.672C64.552 17.176 63.768 16.928 62.792 16.928C61.88 16.928 61.136 17.168 60.56 17.648C59.984 18.112 59.696 18.768 59.696 19.616C59.696 20.224 59.864 20.72 60.2 21.104C60.552 21.488 60.976 21.784 61.472 21.992C61.984 22.184 62.696 22.408 63.608 22.664C64.712 22.968 65.6 23.272 66.272 23.576C66.944 23.864 67.52 24.32 68 24.944C68.48 25.552 68.72 26.384 68.72 27.44C68.72 28.256 68.504 29.024 68.072 29.744C67.64 30.464 67 31.048 66.152 31.496C65.304 31.944 64.304 32.168 63.152 32.168ZM73.0619 16.712C72.6459 16.712 72.2939 16.568 72.0059 16.28C71.7179 15.992 71.5739 15.64 71.5739 15.224C71.5739 14.808 71.7179 14.456 72.0059 14.168C72.2939 13.88 72.6459 13.736 73.0619 13.736C73.4619 13.736 73.7979 13.88 74.0699 14.168C74.3579 14.456 74.5019 14.808 74.5019 15.224C74.5019 15.64 74.3579 15.992 74.0699 16.28C73.7979 16.568 73.4619 16.712 73.0619 16.712ZM74.1179 18.848V32H71.9339V18.848H74.1179ZM80.0242 14.24V32H77.8402V14.24H80.0242ZM88.6424 29.984L92.7224 18.848H95.0504L89.8904 32H87.3464L82.1864 18.848H84.5384L88.6424 29.984ZM109.2 24.92C109.2 25.336 109.176 25.776 109.128 26.24H98.6156C98.6956 27.536 99.1356 28.552 99.9356 29.288C100.752 30.008 101.736 30.368 102.888 30.368C103.832 30.368 104.616 30.152 105.24 29.72C105.88 29.272 106.328 28.68 106.584 27.944H108.936C108.584 29.208 107.88 30.24 106.824 31.04C105.768 31.824 104.456 32.216 102.888 32.216C101.64 32.216 100.52 31.936 99.5276 31.376C98.5516 30.816 97.7836 30.024 97.2236 29C96.6636 27.96 96.3836 26.76 96.3836 25.4C96.3836 24.04 96.6556 22.848 97.1996 21.824C97.7436 20.8 98.5036 20.016 99.4796 19.472C100.472 18.912 101.608 18.632 102.888 18.632C104.136 18.632 105.24 18.904 106.2 19.448C107.16 19.992 107.896 20.744 108.408 21.704C108.936 22.648 109.2 23.72 109.2 24.92ZM106.944 24.464C106.944 23.632 106.76 22.92 106.392 22.328C106.024 21.72 105.52 21.264 104.88 20.96C104.256 20.64 103.56 20.48 102.792 20.48C101.688 20.48 100.744 20.832 99.9596 21.536C99.1916 22.24 98.7516 23.216 98.6396 24.464H106.944ZM114.266 20.984C114.65 20.232 115.194 19.648 115.898 19.232C116.618 18.816 117.49 18.608 118.514 18.608V20.864H117.938C115.49 20.864 114.266 22.192 114.266 24.848V32H112.082V18.848H114.266V20.984Z"
    fill="#808080" />
  <circle cx="24" cy="24" r="24" fill="url(#paint0_linear_1080_551)" />
  <path
    d="M24.376 37.252C22.528 37.252 20.872 36.952 19.408 36.352C17.944 35.752 16.768 34.864 15.88 33.688C15.016 32.512 14.56 31.096 14.512 29.44H21.064C21.16 30.376 21.484 31.096 22.036 31.6C22.588 32.08 23.308 32.32 24.196 32.32C25.108 32.32 25.828 32.116 26.356 31.708C26.884 31.276 27.148 30.688 27.148 29.944C27.148 29.32 26.932 28.804 26.5 28.396C26.092 27.988 25.576 27.652 24.952 27.388C24.352 27.124 23.488 26.824 22.36 26.488C20.728 25.984 19.396 25.48 18.364 24.976C17.332 24.472 16.444 23.728 15.7 22.744C14.956 21.76 14.584 20.476 14.584 18.892C14.584 16.54 15.436 14.704 17.14 13.384C18.844 12.04 21.064 11.368 23.8 11.368C26.584 11.368 28.828 12.04 30.532 13.384C32.236 14.704 33.148 16.552 33.268 18.928H26.608C26.56 18.112 26.26 17.476 25.708 17.02C25.156 16.54 24.448 16.3 23.584 16.3C22.84 16.3 22.24 16.504 21.784 16.912C21.328 17.296 21.1 17.86 21.1 18.604C21.1 19.42 21.484 20.056 22.252 20.512C23.02 20.968 24.22 21.46 25.852 21.988C27.484 22.54 28.804 23.068 29.812 23.572C30.844 24.076 31.732 24.808 32.476 25.768C33.22 26.728 33.592 27.964 33.592 29.476C33.592 30.916 33.22 32.224 32.476 33.4C31.756 34.576 30.7 35.512 29.308 36.208C27.916 36.904 26.272 37.252 24.376 37.252Z"
    fill="#6D6D6D" />
  <defs>
    <linearGradient id="paint0_linear_1080_551" x1="0" y1="24" x2="48" y2="24"
      gradientUnits="userSpaceOnUse">
      <stop stop-color="#D3D3D5" />
      <stop offset="1" stop-color="#ABABAB" />
    </linearGradient>
  </defs>
</svg>
