<svg width="190" height="48" viewBox="0 0 190 48" fill="none" xmlns="http://www.w3.org/2000/svg">
  <path
    d="M68.144 15.272V17.048H63.584V32H61.4V17.048H56.816V15.272H68.144ZM73.0164 20.984C73.4004 20.232 73.9444 19.648 74.6484 19.232C75.3684 18.816 76.2404 18.608 77.2644 18.608V20.864H76.6884C74.2404 20.864 73.0164 22.192 73.0164 24.848V32H70.8324V18.848H73.0164V20.984ZM78.9695 25.376C78.9695 24.032 79.2415 22.856 79.7855 21.848C80.3295 20.824 81.0735 20.032 82.0175 19.472C82.9775 18.912 84.0415 18.632 85.2095 18.632C86.3615 18.632 87.3615 18.88 88.2095 19.376C89.0575 19.872 89.6895 20.496 90.1055 21.248V18.848H92.3135V32H90.1055V29.552C89.6735 30.32 89.0255 30.96 88.1615 31.472C87.3135 31.968 86.3215 32.216 85.1855 32.216C84.0175 32.216 82.9615 31.928 82.0175 31.352C81.0735 30.776 80.3295 29.968 79.7855 28.928C79.2415 27.888 78.9695 26.704 78.9695 25.376ZM90.1055 25.4C90.1055 24.408 89.9055 23.544 89.5055 22.808C89.1055 22.072 88.5615 21.512 87.8735 21.128C87.2015 20.728 86.4575 20.528 85.6415 20.528C84.8255 20.528 84.0815 20.72 83.4095 21.104C82.7375 21.488 82.2015 22.048 81.8015 22.784C81.4015 23.52 81.2015 24.384 81.2015 25.376C81.2015 26.384 81.4015 27.264 81.8015 28.016C82.2015 28.752 82.7375 29.32 83.4095 29.72C84.0815 30.104 84.8255 30.296 85.6415 30.296C86.4575 30.296 87.2015 30.104 87.8735 29.72C88.5615 29.32 89.1055 28.752 89.5055 28.016C89.9055 27.264 90.1055 26.392 90.1055 25.4ZM102.412 18.608C104.012 18.608 105.308 19.096 106.3 20.072C107.292 21.032 107.788 22.424 107.788 24.248V32H105.628V24.56C105.628 23.248 105.3 22.248 104.644 21.56C103.988 20.856 103.092 20.504 101.956 20.504C100.804 20.504 99.8843 20.864 99.1963 21.584C98.5243 22.304 98.1883 23.352 98.1883 24.728V32H96.0043V18.848H98.1883V20.72C98.6203 20.048 99.2043 19.528 99.9403 19.16C100.692 18.792 101.516 18.608 102.412 18.608ZM116.012 32.216C115.004 32.216 114.1 32.048 113.3 31.712C112.5 31.36 111.868 30.88 111.404 30.272C110.94 29.648 110.684 28.936 110.636 28.136H112.892C112.956 28.792 113.26 29.328 113.804 29.744C114.364 30.16 115.092 30.368 115.988 30.368C116.82 30.368 117.476 30.184 117.956 29.816C118.436 29.448 118.676 28.984 118.676 28.424C118.676 27.848 118.42 27.424 117.908 27.152C117.396 26.864 116.604 26.584 115.532 26.312C114.556 26.056 113.756 25.8 113.132 25.544C112.524 25.272 111.996 24.88 111.548 24.368C111.116 23.84 110.9 23.152 110.9 22.304C110.9 21.632 111.1 21.016 111.5 20.456C111.9 19.896 112.468 19.456 113.204 19.136C113.94 18.8 114.78 18.632 115.724 18.632C117.18 18.632 118.356 19 119.252 19.736C120.148 20.472 120.628 21.48 120.692 22.76H118.508C118.46 22.072 118.18 21.52 117.668 21.104C117.172 20.688 116.5 20.48 115.652 20.48C114.868 20.48 114.244 20.648 113.78 20.984C113.316 21.32 113.084 21.76 113.084 22.304C113.084 22.736 113.22 23.096 113.492 23.384C113.78 23.656 114.132 23.88 114.548 24.056C114.98 24.216 115.572 24.4 116.324 24.608C117.268 24.864 118.036 25.12 118.628 25.376C119.22 25.616 119.724 25.984 120.14 26.48C120.572 26.976 120.796 27.624 120.812 28.424C120.812 29.144 120.612 29.792 120.212 30.368C119.812 30.944 119.244 31.4 118.508 31.736C117.788 32.056 116.956 32.216 116.012 32.216ZM126.079 14.24V32H123.895V14.24H126.079ZM128.985 25.376C128.985 24.032 129.257 22.856 129.801 21.848C130.345 20.824 131.089 20.032 132.033 19.472C132.993 18.912 134.057 18.632 135.225 18.632C136.377 18.632 137.377 18.88 138.225 19.376C139.073 19.872 139.705 20.496 140.121 21.248V18.848H142.329V32H140.121V29.552C139.689 30.32 139.041 30.96 138.177 31.472C137.329 31.968 136.337 32.216 135.201 32.216C134.033 32.216 132.977 31.928 132.033 31.352C131.089 30.776 130.345 29.968 129.801 28.928C129.257 27.888 128.985 26.704 128.985 25.376ZM140.121 25.4C140.121 24.408 139.921 23.544 139.521 22.808C139.121 22.072 138.577 21.512 137.889 21.128C137.217 20.728 136.473 20.528 135.657 20.528C134.841 20.528 134.097 20.72 133.425 21.104C132.753 21.488 132.217 22.048 131.817 22.784C131.417 23.52 131.217 24.384 131.217 25.376C131.217 26.384 131.417 27.264 131.817 28.016C132.217 28.752 132.753 29.32 133.425 29.72C134.097 30.104 134.841 30.296 135.657 30.296C136.473 30.296 137.217 30.104 137.889 29.72C138.577 29.32 139.121 28.752 139.521 28.016C139.921 27.264 140.121 26.392 140.121 25.4ZM148.684 20.648V28.4C148.684 29.04 148.82 29.496 149.092 29.768C149.364 30.024 149.836 30.152 150.508 30.152H152.116V32H150.148C148.932 32 148.02 31.72 147.412 31.16C146.804 30.6 146.5 29.68 146.5 28.4V20.648H144.796V18.848H146.5V15.536H148.684V18.848H152.116V20.648H148.684ZM155.89 16.712C155.474 16.712 155.122 16.568 154.834 16.28C154.546 15.992 154.402 15.64 154.402 15.224C154.402 14.808 154.546 14.456 154.834 14.168C155.122 13.88 155.474 13.736 155.89 13.736C156.29 13.736 156.626 13.88 156.898 14.168C157.186 14.456 157.33 14.808 157.33 15.224C157.33 15.64 157.186 15.992 156.898 16.28C156.626 16.568 156.29 16.712 155.89 16.712ZM156.946 18.848V32H154.762V18.848H156.946ZM166.404 32.216C165.172 32.216 164.052 31.936 163.044 31.376C162.052 30.816 161.268 30.024 160.692 29C160.132 27.96 159.852 26.76 159.852 25.4C159.852 24.056 160.14 22.872 160.716 21.848C161.308 20.808 162.108 20.016 163.116 19.472C164.124 18.912 165.252 18.632 166.5 18.632C167.748 18.632 168.876 18.912 169.884 19.472C170.892 20.016 171.684 20.8 172.26 21.824C172.852 22.848 173.148 24.04 173.148 25.4C173.148 26.76 172.844 27.96 172.236 29C171.644 30.024 170.836 30.816 169.812 31.376C168.788 31.936 167.652 32.216 166.404 32.216ZM166.404 30.296C167.188 30.296 167.924 30.112 168.612 29.744C169.3 29.376 169.852 28.824 170.268 28.088C170.7 27.352 170.916 26.456 170.916 25.4C170.916 24.344 170.708 23.448 170.292 22.712C169.876 21.976 169.332 21.432 168.66 21.08C167.988 20.712 167.26 20.528 166.476 20.528C165.676 20.528 164.94 20.712 164.268 21.08C163.612 21.432 163.084 21.976 162.684 22.712C162.284 23.448 162.084 24.344 162.084 25.4C162.084 26.472 162.276 27.376 162.66 28.112C163.06 28.848 163.588 29.4 164.244 29.768C164.9 30.12 165.62 30.296 166.404 30.296ZM182.428 18.608C184.028 18.608 185.324 19.096 186.316 20.072C187.308 21.032 187.804 22.424 187.804 24.248V32H185.644V24.56C185.644 23.248 185.316 22.248 184.66 21.56C184.004 20.856 183.108 20.504 181.972 20.504C180.82 20.504 179.9 20.864 179.212 21.584C178.54 22.304 178.204 23.352 178.204 24.728V32H176.02V18.848H178.204V20.72C178.636 20.048 179.22 19.528 179.956 19.16C180.708 18.792 181.532 18.608 182.428 18.608Z"
    fill="#4E3115" />
  <circle cx="24" cy="24" r="24" fill="url(#paint0_linear_2419_4071)" />
  <path d="M33.412 12.728V17.66H26.716V38H20.56V17.66H13.864V12.728H33.412Z" fill="#6A0758" />
  <defs>
    <linearGradient id="paint0_linear_2419_4071" x1="0" y1="24" x2="48" y2="24"
      gradientUnits="userSpaceOnUse">
      <stop stop-color="#EF7AD8" />
      <stop offset="1" stop-color="#C94053" />
    </linearGradient>
  </defs>
</svg>
