<?xml version="1.0" encoding="UTF-8"?><svg xmlns="http://www.w3.org/2000/svg" xmlns:xlink="http://www.w3.org/1999/xlink" viewBox="0 0 3202.84 825"><defs><style>.g{fill:url(#e);}.h{fill:url(#d);}.i{fill:url(#f);}.j{fill:#fff;}</style><linearGradient id="d" x1="726.99" y1="225.41" x2="387.62" y2="225.41" gradientTransform="matrix(1, 0, 0, 1, 0, 0)" gradientUnits="userSpaceOnUse"><stop offset="0" stop-color="#dc0f78"/><stop offset=".09" stop-color="#e12681"/><stop offset=".31" stop-color="#eb5594"/><stop offset=".52" stop-color="#f47ba3"/><stop offset=".7" stop-color="#fa96ae"/><stop offset=".87" stop-color="#fda7b4"/><stop offset="1" stop-color="#ffadb7"/></linearGradient><linearGradient id="e" x1="19099.02" y1="681.3" x2="18759.64" y2="681.3" gradientTransform="translate(9155.39 17033.98) rotate(-120)" xlink:href="#d"/><linearGradient id="f" x1="9518.19" y1="16363.99" x2="9178.82" y2="16363.99" gradientTransform="translate(19329.56 588.19) rotate(120)" xlink:href="#d"/></defs><g id="a"/><g id="b"><rect class="j" x="1188.92" y="-1188.92" width="825" height="3202.84" transform="translate(2013.92 -1188.92) rotate(90)"/></g><g id="c"><g><g><path class="h" d="M529.12,175.19c-34.94,0-62.62,5.69-83.19,17.28-25.1,14.15-43.56,35.56-54.92,59.81-3.52,7.51-6.32,15.33-8.41,23.33h273.81c13.09,.09,16.86-1.84,23.19-12.29l50.89-88.14h-201.36Z"/><path class="g" d="M251.35,349.58c17.47,30.26,36.24,51.39,56.56,63.41,24.8,14.66,52.58,19.95,79.26,17.65,8.26-.71,16.43-2.19,24.41-4.38l-136.9-237.13c-6.47-11.38-10.02-13.68-22.24-13.94h-101.78l100.68,174.39Z"/><path class="i" d="M541.26,502.94c17.47-30.26,26.39-57.08,26.63-80.69,.3-28.81-9.01-55.51-24.34-77.47-4.75-6.8-10.12-13.14-16-18.95l-136.9,237.13c-6.62,11.29-6.83,15.52-.95,26.23l50.89,88.14,100.68-174.39Z"/></g><g><path d="M981.18,265.75c-4.52-8.53-7.03-10.03-15.57-10.03h-72.81l59.25,101.94c24.61,43.69,70.8,70.29,113.98,54.22l-84.86-146.12Z"/><polygon points="1042.94 492.22 1042.94 607.2 1115.25 607.2 1115.25 509.8 1264.38 255.72 1180.53 255.72 1042.94 492.22"/><path d="M1548.64,305.42v143.11c0,65.28-25.61,99.41-77.33,99.41s-77.33-34.14-77.33-99.41V255.72h-71.81v192.82c0,104.45,58.25,169.22,149.14,169.22s149.64-65.28,149.14-169.22l-.5-199.34c-37.66,5.02-71.3,19.57-71.3,56.23Z"/><path d="M1950.88,297.9l-63.27,110.47-64.78-114.48c-14.56-24.62-32.14-38.17-64.27-38.17h-45.19v351.49h68.29V351.11l81.85,151.14h48.71l81.85-151.14v256.09h68.29V255.72h-37.66c-36.66,0-58.25,15.07-73.82,42.18Z"/><path d="M2275.32,405.85l-27.62,57.25h86.37c47.7,0,71.3-29.14,78.84-65.8h-125.54c-7.03,0-9.04,1-12.05,8.55Z"/><polygon points="2160.33 607.2 2422.44 607.2 2422.44 540.92 2228.62 540.92 2228.62 321.49 2422.44 321.49 2422.44 255.72 2160.33 255.72 2160.33 607.2"/><path d="M2750.38,297.89l-63.27,110.47-64.78-114.48c-14.56-24.62-32.14-38.17-64.27-38.17h-45.2v351.5h68.29V351.11l81.85,151.15h48.71l81.85-151.15v256.1h68.29V255.71h-37.66c-36.66,0-58.25,15.07-73.82,42.18Z"/><path d="M2954.79,302.41v304.79h72.31V247.67c-27.62,1.02-72.31,12.56-72.31,54.74Z"/></g></g></g></svg>