<svg id="レイヤー_1" data-name="レイヤー 1" xmlns="http://www.w3.org/2000/svg" viewBox="0 0 595.28 60.97"><defs><style>.cls-1{fill:red;}</style></defs><path class="cls-1" d="M123.31,326.91H169V315.45H136V303.16h26.6V291.7H136V279.83H169V268.37H123.31Zm137.63,0h45.67V315.45h-33V303.16h26.6V291.7h-26.6V279.83h33V268.37H260.94Zm457.64-47.08V268.37H672.92v58.54h45.66V315.45h-33V303.16h26.6V291.7h-26.6V279.83ZM228.2,304.41l-27.44-36H188.89v58.54H201.6V289.69L230,326.91h11V268.37H228.2Zm342.36,0-27.44-36H531.25v58.54H544V289.69l28.35,37.22h11V268.37H570.56ZM432,291.7H405.45V268.37H392.73v58.54h12.72V303.16H432v23.75h12.71V268.37H432Zm49.6-23.33-21.3,58.54h12.71l4.47-12.29h21L503,326.91h12.72l-21.31-58.54Zm.05,34.79L488,285.83l6.31,17.33Z" transform="translate(-123.31 -267.15)"/><path class="cls-1" d="M364.09,297.64a17.76,17.76,0,0,1-30.32,12.56l-9,9a30.49,30.49,0,1,0,0-43.12l9,9a17.76,17.76,0,0,1,30.32,12.56" transform="translate(-123.31 -267.15)"/><path class="cls-1" d="M630.14,291.7v11.46h13.15v6.37a17.73,17.73,0,1,1-.59-24.45l9-9h0A30.49,30.49,0,1,0,656,313.71h0v-22Z" transform="translate(-123.31 -267.15)"/></svg>