<svg width="503" height="124" viewBox="0 0 503 124" fill="none" xmlns="http://www.w3.org/2000/svg">
<path d="M21 26.5685C21.0004 24.9034 21.5917 23.2918 22.6699 22.0176C23.748 20.7435 25.2438 19.8885 26.8937 19.6034C34.1888 18.4884 41.6386 18.9221 48.7529 20.8762C65.2696 25.2338 71.5811 31.0587 69.6699 34.3114C67.7586 37.5642 51.082 34.9036 55.5801 44.3172C60.0781 53.7307 63.5806 63.1265 45.4994 69.7204C29.8095 75.448 49.0552 87.4779 31.3207 102.469C30.4203 103.252 29.3119 103.761 28.1282 103.934C26.9445 104.107 25.7357 103.937 24.6466 103.445C23.5575 102.952 22.6342 102.158 21.9875 101.157C21.3407 100.156 20.9979 98.9914 21 97.8018V26.5685Z" fill="#449593"/>
<path d="M68.5699 60.3076C66.3562 53.6233 62.649 43.8432 71.317 43.0692C72.7589 42.9055 74.2195 43.0331 75.6101 43.4443C77.0007 43.8555 78.2925 44.5417 79.4071 45.4615C84.8745 50.0613 92.9824 62.955 88.884 79.0852C85.0346 94.2216 68.881 101.478 56.337 102.894C42.166 104.494 42.9483 87.5901 56.337 82.2954C69.7256 77.0008 73.3795 74.7932 68.5699 60.3076Z" fill="#F79200"/>
<path fill-rule="evenodd" clip-rule="evenodd" d="M414.093 62.6869C413.079 61.7595 411.946 60.9704 410.725 60.3402C408.844 59.4007 406.868 58.6621 404.832 58.1369C404.206 57.952 403.58 57.7896 402.972 57.632L402.972 57.6319L402.796 57.5862C402.698 57.5607 402.6 57.5353 402.503 57.5099L400.944 57.08C399.516 56.7365 398.133 56.2254 396.824 55.5573C396.484 55.3606 396.17 55.1197 395.893 54.8408C395.687 54.6532 395.527 54.4201 395.427 54.1601C395.247 53.7793 395.156 53.363 395.158 52.942C395.156 52.3302 395.265 51.7231 395.481 51.1506C395.699 50.534 396.054 49.975 396.519 49.5158C396.985 49.0565 397.548 48.709 398.168 48.4994C399.257 48.0908 400.408 47.8726 401.571 47.8545C405.53 47.8891 409.403 49.0107 412.767 51.0969C412.876 51.1652 412.998 51.2111 413.125 51.2319C413.252 51.2526 413.382 51.2479 413.507 51.2178C413.632 51.1878 413.75 51.1331 413.854 51.057C413.957 50.9809 414.045 50.8848 414.111 50.7744L418.428 43.3045C418.551 43.1113 418.594 42.8776 418.547 42.6533C418.5 42.4291 418.367 42.232 418.177 42.1043C413.224 38.6701 407.29 36.9352 401.267 37.1601C398.847 37.2131 396.454 37.6796 394.191 38.5395C392.171 39.2898 390.337 40.4694 388.817 41.9968C387.3 43.5224 386.128 45.3547 385.378 47.3708C384.678 49.2607 384.349 51.2679 384.41 53.2823C384.462 55.0803 384.863 56.851 385.593 58.4951C386.324 60.0824 387.366 61.5075 388.656 62.6869C389.684 63.6162 390.836 64.3997 392.077 65.0157C393.943 65.9628 395.907 66.7017 397.935 67.219L400.013 67.7744L401.804 68.2759C403.236 68.6183 404.62 69.1357 405.924 69.8165C406.296 70.0073 406.64 70.2485 406.945 70.533C407.154 70.7506 407.329 70.9982 407.465 71.2675C407.649 71.6855 407.746 72.1364 407.752 72.5931C407.766 73.2616 407.645 73.926 407.393 74.5457C407.218 75.0978 406.924 75.6051 406.533 76.0325C406.052 76.4988 405.47 76.8482 404.832 77.0536C403.769 77.442 402.649 77.6479 401.518 77.6626C399.658 77.6852 397.807 77.407 396.036 76.8386C393.85 76.3016 391.751 75.4572 389.802 74.3307C389.601 74.214 389.364 74.175 389.137 74.2212C388.909 74.2674 388.706 74.3956 388.566 74.5815L383.765 80.9408C383.692 81.0394 383.639 81.1516 383.609 81.2709C383.579 81.3901 383.573 81.5141 383.592 81.6357C383.61 81.7573 383.652 81.874 383.716 81.9792C383.779 82.0843 383.863 82.1759 383.962 82.2485C386.653 84.3294 389.683 85.9294 392.919 86.9777C395.819 87.87 398.843 88.2875 401.876 88.2137C404.233 88.1763 406.566 87.734 408.773 86.906C410.788 86.1795 412.62 85.0203 414.139 83.5101C415.659 81.9999 416.829 80.1751 417.568 78.1642C418.29 76.2727 418.637 74.2588 418.589 72.2348C418.533 70.3759 418.1 68.5477 417.317 66.8608C416.543 65.2614 415.445 63.8402 414.093 62.6869ZM240.761 38.4678C240.592 38.4702 240.426 38.5179 240.281 38.6062C240.136 38.6944 240.017 38.8198 239.937 38.9694L226.628 64.0304C226.608 64.068 226.578 64.0993 226.542 64.1213C226.506 64.1432 226.464 64.1547 226.422 64.1547C226.379 64.1547 226.338 64.1432 226.301 64.1213C226.265 64.0993 226.235 64.068 226.216 64.0304L212.942 38.9515C212.862 38.8019 212.743 38.6765 212.598 38.5882C212.453 38.5 212.287 38.4523 212.118 38.4499H202.014C201.855 38.4503 201.698 38.4918 201.558 38.5705C201.419 38.6492 201.303 38.7623 201.22 38.8991C201.137 39.0358 201.091 39.1916 201.086 39.3514C201.081 39.5111 201.117 39.6695 201.19 39.8113L225.589 86.2432C225.668 86.3933 225.786 86.5188 225.932 86.6065C226.077 86.6941 226.243 86.7404 226.413 86.7404C226.582 86.7404 226.749 86.6941 226.894 86.6065C227.039 86.5188 227.158 86.3933 227.237 86.2432L251.653 39.8293C251.727 39.6874 251.763 39.529 251.758 39.3693C251.752 39.2095 251.706 39.0537 251.623 38.917C251.541 38.7802 251.424 38.6671 251.285 38.5884C251.146 38.5098 250.989 38.4682 250.829 38.4678H240.761ZM176.653 87.1528C176.828 87.3275 177.065 87.4256 177.312 87.4256H185.624C185.871 87.4256 186.108 87.3275 186.282 87.1528C186.457 86.9781 186.555 86.7412 186.555 86.4941V39.2561C186.555 39.0091 186.457 38.7721 186.282 38.5975C186.108 38.4228 185.871 38.3246 185.624 38.3246H177.312C177.065 38.3246 176.828 38.4228 176.653 38.5975C176.478 38.7721 176.38 39.0091 176.38 39.2561V86.4941C176.38 86.7412 176.478 86.9781 176.653 87.1528ZM157.069 57.295C156.89 56.5426 156.711 55.9156 156.55 55.5036C156.431 55.1991 156.341 54.9141 156.273 54.6994C156.249 54.6236 156.228 54.5565 156.21 54.5004V54.4109C154.862 50.9782 152.727 47.9101 149.976 45.4541C147.843 43.4818 145.39 41.8885 142.721 40.7428C140.528 39.8855 138.244 39.2844 135.914 38.9515C134.502 38.7375 133.078 38.6119 131.65 38.5753L129.698 38.5216L126.616 38.4499H118.932C118.684 38.4499 118.448 38.548 118.273 38.7227C118.098 38.8974 118 39.1344 118 39.3814V86.5478C118 86.7948 118.098 87.0317 118.273 87.2064C118.448 87.3811 118.684 87.4793 118.932 87.4793H126.437H129.232L131.023 87.336C132.663 87.2348 134.296 87.0374 135.914 86.7448C137.55 86.4957 139.166 86.1305 140.75 85.6521C143.406 84.8249 145.911 83.5727 148.166 81.944C151.16 79.7694 153.593 76.9127 155.263 73.6105C156.932 70.3084 157.791 66.6559 157.768 62.9556C157.751 61.0483 157.517 59.1491 157.069 57.295ZM146.321 68.5984C145.358 70.6254 143.898 72.3756 142.076 73.6858C140.748 74.6739 139.273 75.4476 137.705 75.9788C136.598 76.3184 135.466 76.5699 134.319 76.7311C133.068 76.9395 131.806 77.077 130.539 77.1432H128.945C128.836 77.1456 128.728 77.126 128.627 77.0854C128.526 77.0449 128.434 76.9843 128.357 76.9073C128.28 76.8302 128.219 76.7384 128.179 76.6373C128.138 76.5363 128.119 76.428 128.121 76.3191V49.4488C128.121 49.2018 128.219 48.9648 128.394 48.7902C128.569 48.6155 128.806 48.5173 129.053 48.5173H131.202C132.27 48.5706 133.334 48.6783 134.391 48.8398C135.936 49.0479 137.452 49.4388 138.905 50.0041C140.443 50.6798 141.855 51.6127 143.079 52.7628C144.67 54.1628 145.899 55.9266 146.662 57.904C146.738 58.0729 146.804 58.2464 146.859 58.4235C147.308 59.8616 147.538 61.3594 147.539 62.8661C147.572 64.8348 147.168 66.7862 146.357 68.5805L146.321 68.5984ZM308.707 58.3877C307.984 54.0004 306.132 49.8766 303.333 46.4215C300.585 43.0609 296.975 40.51 292.89 39.0411C292.693 38.9694 292.424 38.8799 291.958 38.7545C289.748 38.1388 287.463 37.8314 285.169 37.8409C282.737 37.8287 280.318 38.2036 278.004 38.9515C274.328 40.1249 271.037 42.2658 268.474 45.1496C267.422 46.3268 266.481 47.5981 265.661 48.9473C264.517 50.7684 263.603 52.7238 262.938 54.7692C262.13 57.2815 261.719 59.9046 261.72 62.5437V63.6901C261.868 67.5556 262.897 71.3362 264.73 74.7428C265.363 75.9259 266.088 77.0579 266.897 78.1284C267.385 78.7575 267.912 79.3558 268.474 79.9198C271.074 82.7344 274.338 84.8529 277.968 86.082C279.226 86.4913 280.513 86.8027 281.819 87.0135C282.84 87.1748 283.682 87.2823 284.166 87.2823C284.727 87.311 285.289 87.311 285.85 87.2823C288.498 87.2818 291.126 86.8336 293.624 85.9566C296.564 84.9117 299.307 83.3796 301.739 81.4245C302.575 80.7438 303.381 80.0273 304.157 79.2749C304.659 78.7733 305.035 78.3613 305.268 78.0926C305.28 78.0825 305.289 78.0701 305.295 78.0562C305.301 78.0423 305.304 78.0272 305.304 78.012C305.304 77.9967 305.301 77.9817 305.295 77.9678C305.289 77.9539 305.28 77.9415 305.268 77.9314L297.458 72.7723C297.293 72.6473 297.092 72.5797 296.885 72.5797C296.678 72.5797 296.476 72.6473 296.311 72.7723C295.137 73.7858 293.844 74.652 292.46 75.3518C290.396 76.4281 288.106 76.9991 285.778 77.0178H284.793C284.275 77.0027 283.76 76.9428 283.252 76.8387C281.967 76.624 280.715 76.2447 279.526 75.7101C277.961 74.9817 276.551 73.9601 275.37 72.7006L275.227 72.5394L274.439 71.6258C273.66 70.5791 273.011 69.4424 272.504 68.2402V68.0252C272.495 68.0051 272.49 67.9829 272.492 67.9607C272.494 67.9385 272.502 67.9172 272.515 67.8989C272.521 67.889 272.53 67.8801 272.539 67.8727C272.543 67.8696 272.547 67.8668 272.551 67.8642C272.556 67.8615 272.56 67.8591 272.565 67.8569C272.585 67.8476 272.607 67.8439 272.63 67.8461H308.081C308.12 67.8463 308.159 67.8318 308.189 67.8053C308.218 67.7789 308.237 67.7423 308.242 67.7028C308.691 65.8249 308.919 63.9012 308.922 61.9704C308.941 60.7725 308.869 59.5749 308.707 58.3877ZM272.504 57.3666C273.066 55.8438 273.85 54.4129 274.833 53.1211C275.342 52.4605 275.905 51.8434 276.517 51.276C277.802 50.1243 279.316 49.2575 280.959 48.7323C282.347 48.2787 283.799 48.0548 285.259 48.0695C286.349 48.0666 287.436 48.1807 288.501 48.4099C288.815 48.4644 289.126 48.5362 289.433 48.6248C291.936 49.543 294.357 51.1592 295.971 53.2824C296.937 54.5174 297.704 55.8954 298.246 57.3666C298.262 57.4009 298.269 57.4388 298.265 57.4765C298.262 57.5141 298.248 57.5502 298.227 57.5811C298.205 57.612 298.175 57.6366 298.141 57.6524C298.107 57.6682 298.069 57.6747 298.031 57.6712H272.719C272.683 57.6701 272.648 57.6607 272.616 57.6436C272.584 57.6265 272.556 57.6022 272.536 57.5727C272.515 57.5431 272.501 57.5091 272.496 57.4734C272.49 57.4376 272.493 57.4011 272.504 57.3666ZM480.731 58.3877C480.008 54.0003 478.156 49.8766 475.357 46.4214C472.642 43.0365 469.056 40.4543 464.985 38.9515C464.681 38.8367 464.37 38.741 464.054 38.6649C461.848 38.06 459.569 37.7646 457.282 37.7871C454.85 37.7749 452.431 38.1498 450.117 38.8977C447.207 39.8449 444.524 41.3816 442.235 43.412C441.626 43.9673 441.053 44.5584 440.444 45.2033C439.422 46.3706 438.494 47.6165 437.667 48.9293C435.121 53.0096 433.757 57.7162 433.726 62.5257V63.6722C433.883 67.535 434.925 71.3102 436.771 74.7069C437.399 75.8897 438.117 77.0217 438.921 78.0926C439.42 78.7177 439.952 79.3156 440.515 79.8839C443.115 82.683 446.372 84.7888 449.992 86.0103C451.255 86.4216 452.549 86.7331 453.861 86.9419C454.864 87.1031 455.652 87.1747 456.172 87.2106H456.261C456.828 87.2401 457.396 87.2401 457.963 87.2106C460.604 87.2 463.225 86.7521 465.72 85.885C468.656 84.8326 471.398 83.3012 473.835 81.3528C474.672 80.6789 475.473 79.9614 476.235 79.2032C476.45 79.0062 476.629 78.827 476.79 78.6479C476.879 78.5499 476.946 78.4337 476.985 78.3075C477.025 78.1813 477.036 78.048 477.019 77.9169C477.002 77.7857 476.957 77.6598 476.886 77.5479C476.816 77.4359 476.722 77.3406 476.611 77.2685L469.625 72.6289C469.457 72.5025 469.253 72.4341 469.043 72.4341C468.833 72.4341 468.628 72.5025 468.461 72.6289C467.283 73.6467 465.983 74.5133 464.591 75.2085C462.534 76.2846 460.249 76.8556 457.927 76.8744H456.906C456.389 76.858 455.873 76.7981 455.366 76.6953C454.086 76.4808 452.84 76.1014 451.658 75.5668C450.085 74.8435 448.667 73.8214 447.484 72.5573C447.16 72.2156 446.855 71.8568 446.57 71.4825C445.78 70.4405 445.123 69.303 444.618 68.0968C444.608 68.0315 444.608 67.9651 444.618 67.8998C444.609 67.8786 444.606 67.8556 444.608 67.8329C444.61 67.8101 444.617 67.7882 444.629 67.7689C444.642 67.7496 444.658 67.7335 444.678 67.722C444.688 67.7165 444.698 67.712 444.708 67.7088C444.72 67.7054 444.731 67.7033 444.743 67.7027H480.158C480.179 67.7027 480.2 67.6985 480.22 67.6904C480.239 67.6823 480.257 67.6705 480.272 67.6555C480.287 67.6405 480.299 67.6227 480.307 67.6032C480.315 67.5836 480.319 67.5627 480.319 67.5415C480.768 65.6637 480.997 63.7399 481 61.8092C480.984 60.6641 480.895 59.5212 480.731 58.3877ZM444.779 57.6711C444.743 57.6701 444.707 57.6607 444.675 57.6436C444.643 57.6265 444.616 57.6022 444.595 57.5726C444.574 57.5431 444.561 57.5091 444.555 57.4733C444.55 57.4375 444.553 57.401 444.564 57.3666C445.125 55.8437 445.91 54.4129 446.893 53.1211C447.399 52.4749 447.963 51.8754 448.576 51.3297C449.848 50.161 451.348 49.2702 452.983 48.7144C454.377 48.2619 455.835 48.0381 457.3 48.0516C458.39 48.0486 459.477 48.1628 460.543 48.3919C460.857 48.4445 461.168 48.5163 461.474 48.6069H461.707C464.226 49.5248 466.427 51.1478 468.049 53.2823C469.004 54.5278 469.765 55.9109 470.306 57.3845C470.322 57.4188 470.328 57.4567 470.325 57.4943C470.321 57.532 470.308 57.5681 470.286 57.599C470.264 57.6299 470.235 57.6544 470.201 57.6703C470.166 57.6861 470.128 57.6926 470.091 57.689L444.779 57.6711ZM356.358 67.0757C358.436 65.5889 363.702 61.2538 363.702 54.0884C363.875 51.3046 363.219 48.5319 361.816 46.1212C360.413 43.7105 358.326 41.7702 355.82 40.5458C352.309 38.4678 345.484 38.4678 342.869 38.4678H328.538C328.291 38.4678 328.054 38.566 327.879 38.7406C327.705 38.9153 327.606 39.1523 327.606 39.3993V86.6015C327.606 86.8485 327.705 87.0855 327.879 87.2602C328.054 87.4349 328.291 87.533 328.538 87.533H336.814C337.061 87.533 337.298 87.4349 337.473 87.2602C337.647 87.0855 337.745 86.8485 337.745 86.6015V70.7122C337.745 70.4651 337.844 70.2282 338.018 70.0535C338.193 69.8788 338.43 69.7807 338.677 69.7807H344.051C344.193 69.7793 344.333 69.8109 344.461 69.8731C344.588 69.9353 344.699 70.0263 344.785 70.139L357.755 87.0852C357.84 87.1989 357.951 87.2906 358.079 87.3529C358.207 87.4152 358.347 87.4463 358.489 87.4434H367.446C367.615 87.4429 367.78 87.3966 367.924 87.3095C368.069 87.2224 368.187 87.0977 368.266 86.9487C368.345 86.7998 368.382 86.6321 368.373 86.4637C368.365 86.2953 368.31 86.1324 368.216 85.9924L356.089 68.4551C356.015 68.3472 355.963 68.2257 355.936 68.0977C355.91 67.9696 355.909 67.8375 355.934 67.7091C355.959 67.5807 356.009 67.4586 356.082 67.3498C356.155 67.2411 356.248 67.1479 356.358 67.0757ZM337.929 59.315C337.754 59.1404 337.656 58.9034 337.656 58.6564L337.638 49.4488C337.638 49.2018 337.736 48.9648 337.911 48.7901C338.085 48.6155 338.322 48.5173 338.569 48.5173H346.004C353.079 48.5173 353.599 51.9925 353.599 55.0378C353.599 58.0831 351.127 59.5879 347.544 59.5879H338.587C338.34 59.5879 338.103 59.4897 337.929 59.315Z" fill="black"/>
</svg>
